<svg width="160" height="32" viewBox="0 0 160 32" fill="none" xmlns="http://www.w3.org/2000/svg">
<path d="M28.8292 0C32.0391 0.510316 35.1606 1.41164 38.1111 2.68015C43.2032 9.66722 45.733 17.5475 44.7989 26.6368C40.9029 29.3134 37.1239 30.9372 33.4083 32C32.4853 30.8347 31.6698 29.6007 30.9702 28.3107C32.3056 27.844 33.5928 27.2682 34.8163 26.5903C34.4962 26.3697 34.1824 26.1416 33.8751 25.9061C26.5609 29.0879 18.5175 29.0879 11.115 25.9061C10.8105 26.1419 10.4955 26.3713 10.1735 26.5903C11.3952 27.2664 12.6801 27.8409 14.0129 28.3072C13.3129 29.597 12.4974 30.8311 11.5748 31.9968C7.86269 30.934 4.08726 29.3102 0.191242 26.6368C-0.605399 18.7963 0.986828 10.8427 6.86109 2.68661C9.81312 1.41405 12.9373 0.510484 16.1504 0C16.5537 0.664143 17.0314 1.55764 17.3535 2.26829C20.7506 1.79021 24.1794 1.79021 27.6402 2.26829C27.9948 1.49433 28.3916 0.737275 28.8292 0ZM15.0216 13.3565C12.7603 13.3565 10.9768 15.2662 10.9768 17.5875C10.9768 19.9088 12.7993 21.815 15.0216 21.815C17.2828 21.815 19.0698 19.9088 19.0663 17.5875C19.105 15.2627 17.2828 13.3565 15.0216 13.3565ZM29.9686 13.3565C27.7073 13.3565 25.9239 15.2662 25.9239 17.5875C25.9239 19.9088 27.7464 21.815 29.9686 21.815C32.2298 21.815 34.0133 19.9088 34.0133 17.5875C34.052 15.2627 32.2298 13.3565 29.9686 13.3565Z" fill="#7E7E94"/>
<path d="M59.1482 25H67.4162C73.3702 25 77.4522 21.412 77.4522 15.9C77.4522 10.388 73.3702 6.8 67.4162 6.8H59.1482V25ZM63.3602 21.542V10.258H67.2082C70.8222 10.258 73.1882 12.416 73.1882 15.9C73.1882 19.384 70.8222 21.542 67.2082 21.542H63.3602Z" fill="#7E7E94"/>
<path d="M82.3707 9.062C83.8787 9.062 84.8927 8.074 84.8927 6.722C84.8927 5.474 83.8787 4.538 82.3707 4.538C80.8627 4.538 79.8487 5.526 79.8487 6.8C79.8487 8.074 80.8627 9.062 82.3707 9.062ZM80.3427 25H84.3987V11.012H80.3427V25Z" fill="#7E7E94"/>
<path d="M92.869 25.208C97.055 25.208 99.473 23.362 99.473 20.762C99.473 15.25 91.023 17.564 91.023 15.172C91.023 14.444 91.803 13.872 93.623 13.872C94.897 13.872 96.275 14.132 97.653 14.912L99.005 12.026C97.679 11.246 95.547 10.804 93.623 10.804C89.541 10.804 87.149 12.676 87.149 15.328C87.149 20.918 95.599 18.578 95.599 20.866C95.599 21.646 94.897 22.14 93.025 22.14C91.309 22.14 89.411 21.594 88.163 20.788L86.811 23.7C88.111 24.558 90.503 25.208 92.869 25.208Z" fill="#7E7E94"/>
<path d="M108.736 25.208C111.674 25.208 113.988 23.908 115.002 21.672L111.856 19.956C111.102 21.308 109.984 21.88 108.71 21.88C106.656 21.88 105.044 20.45 105.044 18.006C105.044 15.562 106.656 14.132 108.71 14.132C109.984 14.132 111.102 14.73 111.856 16.056L115.002 14.366C113.988 12.078 111.674 10.804 108.736 10.804C104.186 10.804 100.936 13.794 100.936 18.006C100.936 22.218 104.186 25.208 108.736 25.208Z" fill="#7E7E94"/>
<path d="M123.815 25.208C128.261 25.208 131.485 22.218 131.485 18.006C131.485 13.794 128.261 10.804 123.815 10.804C119.369 10.804 116.119 13.794 116.119 18.006C116.119 22.218 119.369 25.208 123.815 25.208ZM123.815 21.88C121.787 21.88 120.227 20.424 120.227 18.006C120.227 15.588 121.787 14.132 123.815 14.132C125.843 14.132 127.377 15.588 127.377 18.006C127.377 20.424 125.843 21.88 123.815 21.88Z" fill="#7E7E94"/>
<path d="M138.07 12.858V11.012H134.196V25H138.252V18.396C138.252 15.718 139.734 14.496 141.97 14.496C142.282 14.496 142.542 14.522 142.88 14.548V10.804C140.722 10.804 139.058 11.506 138.07 12.858Z" fill="#7E7E94"/>
<path d="M155.357 5.708V12.494C154.343 11.35 152.887 10.804 151.171 10.804C147.219 10.804 144.177 13.612 144.177 18.006C144.177 22.4 147.219 25.208 151.171 25.208C153.043 25.208 154.525 24.61 155.539 23.388V25H159.413V5.708H155.357ZM151.873 21.88C149.845 21.88 148.285 20.424 148.285 18.006C148.285 15.588 149.845 14.132 151.873 14.132C153.875 14.132 155.435 15.588 155.435 18.006C155.435 20.424 153.875 21.88 151.873 21.88Z" fill="#7E7E94"/>
</svg>
