<svg width="40" height="30" viewBox="0 0 40 30" fill="none" xmlns="http://www.w3.org/2000/svg">
<path d="M25.0539 0C27.8435 0.478422 30.5562 1.32342 33.1204 2.51264C37.5456 9.06302 39.7442 16.4507 38.9324 24.972C35.5466 27.4813 32.2625 29.0037 29.0334 30C28.2313 28.9075 27.5225 27.7506 26.9146 26.5413C28.0751 26.1037 29.1937 25.5639 30.257 24.9284C29.9788 24.7216 29.7061 24.5077 29.4391 24.287C23.0827 27.2699 16.0926 27.2699 9.65946 24.287C9.39487 24.508 9.12112 24.7231 8.84126 24.9284C9.90296 25.5622 11.0196 26.1009 12.1779 26.538C11.5695 27.7472 10.8608 28.9041 10.0591 29.997C6.83305 29.0006 3.55202 27.4783 0.166198 24.972C-0.52612 17.6215 0.857601 10.165 5.96261 2.5187C8.52806 1.32568 11.2432 0.478579 14.0355 0C14.3859 0.622634 14.8011 1.46028 15.081 2.12653C18.0333 1.67833 21.0131 1.67833 24.0206 2.12653C24.3288 1.40094 24.6737 0.691195 25.0539 0ZM13.0544 12.5217C11.0893 12.5217 9.53939 14.3121 9.53939 16.4883C9.53939 18.6645 11.1232 20.4515 13.0544 20.4515C15.0196 20.4515 16.5726 18.6645 16.5695 16.4883C16.6031 14.3088 15.0196 12.5217 13.0544 12.5217ZM26.0441 12.5217C24.079 12.5217 22.5291 14.3121 22.5291 16.4883C22.5291 18.6645 24.1129 20.4515 26.0441 20.4515C28.0093 20.4515 29.5592 18.6645 29.5592 16.4883C29.5928 14.3088 28.0093 12.5217 26.0441 12.5217Z" fill="#5865F2"/>
</svg>
