<svg width="40" height="32" viewBox="0 0 40 32" fill="none" xmlns="http://www.w3.org/2000/svg">
<path d="M5.11765 4C2.35071 4 0 6.07102 0 8.73549V20.9174C0 23.2522 1.80444 25.1311 4.11237 25.5605V32L14.0849 25.6534H26.8824C29.6494 25.6534 32 23.5823 32 20.9174V17.2105H30.0188V20.9174C30.0188 22.416 28.6665 23.7315 26.8824 23.7315H13.493L6.09361 28.4405V23.734L5.10616 23.731C3.32741 23.7255 1.98124 22.4127 1.98124 20.9174V8.73549C1.98124 7.23749 3.33341 5.9219 5.11765 5.9219H12.9981V4H5.11765Z" fill="url(#paint0_linear_18403_78995)"/>
<path d="M36.8957 14.6815L37.5644 16.4417C37.1305 16.584 36.6581 16.6629 36.1642 16.6643V17.8315H34.1555V14.8032L36.1581 14.7976C36.4255 14.7969 36.6739 14.7543 36.8957 14.6815Z" fill="url(#paint1_linear_18403_78995)"/>
<path d="M37.8745 2.73358C37.9524 2.87988 37.9913 3.03141 37.9913 3.18787V4.47393H40V3.18787C40 2.73195 39.8838 2.29807 39.6747 1.90547L37.8745 2.73358Z" fill="url(#paint2_linear_18403_78995)"/>
<path d="M36.1505 0C36.6457 0 37.1194 0.0778446 37.5546 0.219533L36.8905 1.9812C36.6679 1.90873 36.4187 1.86664 36.1505 1.86664H34.8817V0H36.1505Z" fill="url(#paint3_linear_18403_78995)"/>
<path d="M15.1095 1.9812C15.3321 1.90873 15.5813 1.86664 15.8495 1.86664H17.1183V0H15.8495C15.3543 0 14.8806 0.0778446 14.4454 0.219533L15.1095 1.9812Z" fill="url(#paint4_linear_18403_78995)"/>
<path d="M14.1255 13.931C14.0476 13.7846 14.0087 13.633 14.0087 13.4764V12.1903H12V13.4764C12 13.9324 12.1162 14.3663 12.3252 14.7589L14.1255 13.931Z" fill="url(#paint5_linear_18403_78995)"/>
<path d="M31.1006 18.4154L33.126 19.5826L34.1846 17.9962L32.1592 16.829L31.1006 18.4154Z" fill="url(#paint6_linear_18403_78995)"/>
<path d="M36.1642 19.2321V21.3333L34.1555 20.1758V20.1661H35.541L36.1642 19.2321Z" fill="url(#paint7_linear_18403_78995)"/>
<path d="M29.0751 17.2483L28.0624 16.6647H26.5358V14.798H28.6347L30.1337 15.6619L29.0751 17.2483Z" fill="url(#paint8_linear_18403_78995)"/>
<path d="M15.1095 14.6835C15.3321 14.7559 15.5813 14.798 15.8495 14.798H17.3761V16.6647H15.8495C15.3542 16.6647 14.8805 16.5868 14.4453 16.4451L15.1095 14.6835Z" fill="url(#paint9_linear_18403_78995)"/>
<path d="M14.1255 2.73358C14.0476 2.87988 14.0087 3.03141 14.0087 3.18787V4.47393H12V3.18787C12 2.73195 12.1162 2.29807 12.3253 1.90547L14.1255 2.73358Z" fill="url(#paint10_linear_18403_78995)"/>
<path d="M37.8751 13.9298C37.9526 13.7839 37.9913 13.6326 37.9913 13.4764V12.1903H40V13.4764C40 13.9313 39.8844 14.3642 39.6763 14.756L37.8751 13.9298Z" fill="url(#paint11_linear_18403_78995)"/>
<path d="M23.4826 16.6647H20.4293V14.798H23.4826V16.6647Z" fill="url(#paint12_linear_18403_78995)"/>
<path d="M12 9.61819V7.04606H14.0087V9.61819H12Z" fill="url(#paint13_linear_18403_78995)"/>
<path d="M19.6559 0H22.1936V1.86664H19.6559V0Z" fill="url(#paint14_linear_18403_78995)"/>
<path d="M24.7312 0H27.2688V1.86664H24.7312V0Z" fill="url(#paint15_linear_18403_78995)"/>
<path d="M29.8064 0H32.3441V1.86664H29.8064V0Z" fill="url(#paint16_linear_18403_78995)"/>
<path d="M40 7.04606V9.61819H37.9913V7.04606H40Z" fill="url(#paint17_linear_18403_78995)"/>
<defs>
<linearGradient id="paint0_linear_18403_78995" x1="43.52" y1="-65.3" x2="-13.6241" y2="-63.097" gradientUnits="userSpaceOnUse">
<stop stop-color="#E06656"/>
<stop offset="0.774201" stop-color="#8C7CEB"/>
<stop offset="1" stop-color="#5FCEE7"/>
</linearGradient>
<linearGradient id="paint1_linear_18403_78995" x1="50.08" y1="-52.8" x2="0.102535" y2="-50.5873" gradientUnits="userSpaceOnUse">
<stop stop-color="#E06656"/>
<stop offset="0.774201" stop-color="#8C7CEB"/>
<stop offset="1" stop-color="#5FCEE7"/>
</linearGradient>
<linearGradient id="paint2_linear_18403_78995" x1="50.08" y1="-52.8" x2="0.102535" y2="-50.5873" gradientUnits="userSpaceOnUse">
<stop stop-color="#E06656"/>
<stop offset="0.774201" stop-color="#8C7CEB"/>
<stop offset="1" stop-color="#5FCEE7"/>
</linearGradient>
<linearGradient id="paint3_linear_18403_78995" x1="50.08" y1="-52.8" x2="0.102535" y2="-50.5873" gradientUnits="userSpaceOnUse">
<stop stop-color="#E06656"/>
<stop offset="0.774201" stop-color="#8C7CEB"/>
<stop offset="1" stop-color="#5FCEE7"/>
</linearGradient>
<linearGradient id="paint4_linear_18403_78995" x1="50.08" y1="-52.8" x2="0.102535" y2="-50.5873" gradientUnits="userSpaceOnUse">
<stop stop-color="#E06656"/>
<stop offset="0.774201" stop-color="#8C7CEB"/>
<stop offset="1" stop-color="#5FCEE7"/>
</linearGradient>
<linearGradient id="paint5_linear_18403_78995" x1="50.08" y1="-52.8" x2="0.102535" y2="-50.5873" gradientUnits="userSpaceOnUse">
<stop stop-color="#E06656"/>
<stop offset="0.774201" stop-color="#8C7CEB"/>
<stop offset="1" stop-color="#5FCEE7"/>
</linearGradient>
<linearGradient id="paint6_linear_18403_78995" x1="50.08" y1="-52.8" x2="0.102535" y2="-50.5873" gradientUnits="userSpaceOnUse">
<stop stop-color="#E06656"/>
<stop offset="0.774201" stop-color="#8C7CEB"/>
<stop offset="1" stop-color="#5FCEE7"/>
</linearGradient>
<linearGradient id="paint7_linear_18403_78995" x1="50.08" y1="-52.8" x2="0.102535" y2="-50.5873" gradientUnits="userSpaceOnUse">
<stop stop-color="#E06656"/>
<stop offset="0.774201" stop-color="#8C7CEB"/>
<stop offset="1" stop-color="#5FCEE7"/>
</linearGradient>
<linearGradient id="paint8_linear_18403_78995" x1="50.08" y1="-52.8" x2="0.102535" y2="-50.5873" gradientUnits="userSpaceOnUse">
<stop stop-color="#E06656"/>
<stop offset="0.774201" stop-color="#8C7CEB"/>
<stop offset="1" stop-color="#5FCEE7"/>
</linearGradient>
<linearGradient id="paint9_linear_18403_78995" x1="50.08" y1="-52.8" x2="0.102535" y2="-50.5873" gradientUnits="userSpaceOnUse">
<stop stop-color="#E06656"/>
<stop offset="0.774201" stop-color="#8C7CEB"/>
<stop offset="1" stop-color="#5FCEE7"/>
</linearGradient>
<linearGradient id="paint10_linear_18403_78995" x1="50.08" y1="-52.8" x2="0.102535" y2="-50.5873" gradientUnits="userSpaceOnUse">
<stop stop-color="#E06656"/>
<stop offset="0.774201" stop-color="#8C7CEB"/>
<stop offset="1" stop-color="#5FCEE7"/>
</linearGradient>
<linearGradient id="paint11_linear_18403_78995" x1="50.08" y1="-52.8" x2="0.102535" y2="-50.5873" gradientUnits="userSpaceOnUse">
<stop stop-color="#E06656"/>
<stop offset="0.774201" stop-color="#8C7CEB"/>
<stop offset="1" stop-color="#5FCEE7"/>
</linearGradient>
<linearGradient id="paint12_linear_18403_78995" x1="50.08" y1="-52.8" x2="0.102535" y2="-50.5873" gradientUnits="userSpaceOnUse">
<stop stop-color="#E06656"/>
<stop offset="0.774201" stop-color="#8C7CEB"/>
<stop offset="1" stop-color="#5FCEE7"/>
</linearGradient>
<linearGradient id="paint13_linear_18403_78995" x1="50.08" y1="-52.8" x2="0.102535" y2="-50.5873" gradientUnits="userSpaceOnUse">
<stop stop-color="#E06656"/>
<stop offset="0.774201" stop-color="#8C7CEB"/>
<stop offset="1" stop-color="#5FCEE7"/>
</linearGradient>
<linearGradient id="paint14_linear_18403_78995" x1="50.08" y1="-52.8" x2="0.102535" y2="-50.5873" gradientUnits="userSpaceOnUse">
<stop stop-color="#E06656"/>
<stop offset="0.774201" stop-color="#8C7CEB"/>
<stop offset="1" stop-color="#5FCEE7"/>
</linearGradient>
<linearGradient id="paint15_linear_18403_78995" x1="50.08" y1="-52.8" x2="0.102535" y2="-50.5873" gradientUnits="userSpaceOnUse">
<stop stop-color="#E06656"/>
<stop offset="0.774201" stop-color="#8C7CEB"/>
<stop offset="1" stop-color="#5FCEE7"/>
</linearGradient>
<linearGradient id="paint16_linear_18403_78995" x1="50.08" y1="-52.8" x2="0.102535" y2="-50.5873" gradientUnits="userSpaceOnUse">
<stop stop-color="#E06656"/>
<stop offset="0.774201" stop-color="#8C7CEB"/>
<stop offset="1" stop-color="#5FCEE7"/>
</linearGradient>
<linearGradient id="paint17_linear_18403_78995" x1="50.08" y1="-52.8" x2="0.102535" y2="-50.5873" gradientUnits="userSpaceOnUse">
<stop stop-color="#E06656"/>
<stop offset="0.774201" stop-color="#8C7CEB"/>
<stop offset="1" stop-color="#5FCEE7"/>
</linearGradient>
</defs>
</svg>
