<svg width="191" height="40" viewBox="0 0 191 40" fill="none" xmlns="http://www.w3.org/2000/svg">
<path fill-rule="evenodd" clip-rule="evenodd" d="M9.4324 0.020268C7.01192 0.281197 4.80035 1.35794 3.05203 3.12676C1.49744 4.69954 0.606179 6.36779 0.140273 8.57701C0.009315 9.19802 0 9.95765 0 20.0034C0 30.0492 0.009315 30.8088 0.140273 31.4298C0.606727 33.6414 1.5005 35.3132 3.05203 36.8765C4.62744 38.4637 6.33889 39.3887 8.57135 39.8594C9.19248 39.9903 9.95185 39.9996 19.9998 39.9996C32.0198 39.9996 31.2262 40.0338 32.9344 39.4434C34.4735 38.9115 35.6377 38.1752 36.8795 36.9482C38.455 35.3915 39.3884 33.663 39.8594 31.4298C39.9903 30.8088 39.9997 30.0496 39.9997 20.0034C39.9997 8.07104 40.0315 8.86235 39.4843 7.19738C38.9631 5.61177 38.1844 4.37162 36.9094 3.09687C35.3612 1.5489 33.8091 0.692 31.624 0.178907C30.9264 0.0151027 30.8152 0.0133809 20.3129 0.00211101C14.4793 -0.00415003 9.58309 0.00398933 9.4324 0.020268ZM27.7101 7.22971C30.2342 7.93838 32.111 9.82867 32.7776 12.3336L32.9547 12.9989V27.008L32.7776 27.6732C32.1059 30.1975 30.1957 32.1073 27.671 32.7789L27.0056 32.956H19.9998C13.577 32.956 12.9496 32.9445 12.4595 32.8187C9.8526 32.1493 7.90365 30.2346 7.22201 27.6732L7.04495 27.008V12.9989L7.22201 12.3336C7.93809 9.64279 10.0956 7.62595 12.7853 7.13289C13.2757 7.04305 14.6376 7.02575 20.2347 7.03843C27.0733 7.05393 27.0849 7.05416 27.7101 7.22971ZM12.8924 9.51788C12.0356 9.74234 11.4289 10.0974 10.7605 10.7657C10.0824 11.4436 9.73494 12.0441 9.50872 12.9281C9.36086 13.5062 9.35413 13.8156 9.35413 20.0034C9.35413 26.1912 9.36086 26.5007 9.50872 27.0787C9.73494 27.9628 10.0824 28.5632 10.7605 29.2411C11.4385 29.919 12.039 30.2664 12.9233 30.4926C13.5014 30.6405 13.8109 30.6472 19.9998 30.6472C26.1887 30.6472 26.4982 30.6405 27.0764 30.4926C27.9606 30.2664 28.5612 29.919 29.2392 29.2411C29.9172 28.5632 30.2647 27.9628 30.4909 27.0787C30.6388 26.5007 30.6455 26.1912 30.6455 20.0034C30.6455 13.8156 30.6388 13.5062 30.4909 12.9281C30.2647 12.0441 29.9172 11.4436 29.2392 10.7657C28.5612 10.0878 27.9606 9.74039 27.0764 9.51421C26.4974 9.36621 26.1964 9.35979 19.9677 9.36394C13.8227 9.36801 13.4321 9.37654 12.8924 9.51788ZM27.2816 12.2564C27.629 12.4336 27.9058 12.8844 27.9058 13.2728C27.9058 13.8683 27.3273 14.4467 26.7317 14.4467C26.3433 14.4467 25.8923 14.1699 25.7151 13.8227C25.4168 13.2382 25.5912 12.624 26.1519 12.2847C26.5267 12.0579 26.8753 12.0491 27.2816 12.2564ZM21.1489 14.2565C22.3217 14.4987 23.3029 15.0315 24.1423 15.8822C24.9106 16.6606 25.4049 17.5114 25.6912 18.5478C25.872 19.2026 25.872 20.8042 25.6912 21.459C25.0867 23.6477 23.3434 25.2971 21.1575 25.7486C17.0951 26.5875 13.4188 22.9124 14.2527 18.8457C14.9013 15.6829 18.0168 13.6096 21.1489 14.2565ZM19.1747 16.5908C18.5263 16.7482 18.0313 17.0317 17.5285 17.5334C16.139 18.9199 16.139 21.0892 17.5285 22.4721C18.9251 23.8622 21.0863 23.8631 22.469 22.4743C23.8592 21.078 23.8601 18.9213 22.4712 17.5325C21.5777 16.6392 20.3817 16.2976 19.1747 16.5908Z" fill="#7E7E94"/>
<path d="M54.4783 29H58.6903V10.8H54.4783V29Z" fill="#7E7E94"/>
<path d="M71.2256 14.804C69.3276 14.804 67.6896 15.454 66.5976 16.65V15.012H62.7236V29H66.7796V22.084C66.7796 19.51 68.1836 18.314 70.1336 18.314C71.9276 18.314 72.9676 19.354 72.9676 21.616V29H77.0236V20.992C77.0236 16.728 74.5276 14.804 71.2256 14.804Z" fill="#7E7E94"/>
<path d="M85.4061 29.208C89.5921 29.208 92.0101 27.362 92.0101 24.762C92.0101 19.25 83.5601 21.564 83.5601 19.172C83.5601 18.444 84.3401 17.872 86.1601 17.872C87.4341 17.872 88.8121 18.132 90.1901 18.912L91.5421 16.026C90.2161 15.246 88.0841 14.804 86.1601 14.804C82.0781 14.804 79.6861 16.676 79.6861 19.328C79.6861 24.918 88.1361 22.578 88.1361 24.866C88.1361 25.646 87.4341 26.14 85.5621 26.14C83.8461 26.14 81.9481 25.594 80.7001 24.788L79.3481 27.7C80.6481 28.558 83.0401 29.208 85.4061 29.208Z" fill="#7E7E94"/>
<path d="M102.443 25.464C102.001 25.802 101.403 25.984 100.805 25.984C99.7126 25.984 99.0626 25.334 99.0626 24.138V18.444H102.547V15.324H99.0626V11.918H95.0066V15.324H92.8486V18.444H95.0066V24.19C95.0066 27.518 96.9306 29.208 100.233 29.208C101.481 29.208 102.703 28.922 103.535 28.324L102.443 25.464Z" fill="#7E7E94"/>
<path d="M111.453 14.804C109.217 14.804 106.955 15.402 105.421 16.494L106.877 19.328C107.891 18.522 109.425 18.028 110.907 18.028C113.091 18.028 114.131 19.042 114.131 20.784H110.907C106.643 20.784 104.901 22.5 104.901 24.97C104.901 27.388 106.851 29.208 110.127 29.208C112.181 29.208 113.637 28.532 114.391 27.258V29H118.187V21.018C118.187 16.78 115.717 14.804 111.453 14.804ZM111.141 26.478C109.711 26.478 108.853 25.802 108.853 24.788C108.853 23.852 109.451 23.15 111.349 23.15H114.131V24.58C113.663 25.854 112.493 26.478 111.141 26.478Z" fill="#7E7E94"/>
<path d="M132.593 15.012V16.806C131.527 15.454 129.915 14.804 127.965 14.804C124.091 14.804 120.971 17.482 120.971 21.564C120.971 25.646 124.091 28.324 127.965 28.324C129.785 28.324 131.319 27.752 132.385 26.582V27.18C132.385 29.702 131.137 31.002 128.277 31.002C126.483 31.002 124.533 30.378 123.337 29.416L121.725 32.328C123.363 33.602 125.937 34.252 128.589 34.252C133.633 34.252 136.441 31.86 136.441 26.66V15.012H132.593ZM128.771 24.996C126.639 24.996 125.079 23.618 125.079 21.564C125.079 19.51 126.639 18.132 128.771 18.132C130.903 18.132 132.437 19.51 132.437 21.564C132.437 23.618 130.903 24.996 128.771 24.996Z" fill="#7E7E94"/>
<path d="M144.09 16.858V15.012H140.216V29H144.272V22.396C144.272 19.718 145.754 18.496 147.99 18.496C148.302 18.496 148.562 18.522 148.9 18.548V14.804C146.742 14.804 145.078 15.506 144.09 16.858Z" fill="#7E7E94"/>
<path d="M156.877 14.804C154.641 14.804 152.379 15.402 150.845 16.494L152.301 19.328C153.315 18.522 154.849 18.028 156.331 18.028C158.515 18.028 159.555 19.042 159.555 20.784H156.331C152.067 20.784 150.325 22.5 150.325 24.97C150.325 27.388 152.275 29.208 155.551 29.208C157.605 29.208 159.061 28.532 159.815 27.258V29H163.611V21.018C163.611 16.78 161.141 14.804 156.877 14.804ZM156.565 26.478C155.135 26.478 154.277 25.802 154.277 24.788C154.277 23.852 154.875 23.15 156.773 23.15H159.555V24.58C159.087 25.854 157.917 26.478 156.565 26.478Z" fill="#7E7E94"/>
<path d="M185.196 14.804C183.09 14.804 181.27 15.662 180.152 17.092C179.164 15.558 177.5 14.804 175.55 14.804C173.756 14.804 172.196 15.428 171.156 16.624V15.012H167.282V29H171.338V21.98C171.338 19.484 172.612 18.314 174.406 18.314C176.096 18.314 177.058 19.354 177.058 21.616V29H181.114V21.98C181.114 19.484 182.388 18.314 184.208 18.314C185.846 18.314 186.86 19.354 186.86 21.616V29H190.916V20.992C190.916 16.728 188.524 14.804 185.196 14.804Z" fill="#7E7E94"/>
</svg>
