<svg width="170" height="40" viewBox="0 0 170 40" fill="none" xmlns="http://www.w3.org/2000/svg">
<path fill-rule="evenodd" clip-rule="evenodd" d="M4.94656e-07 3.34182C4.94656e-07 2.45552 0.352084 1.60551 0.978796 0.9788C1.60551 0.352088 2.45551 4.45512e-06 3.34182 4.45512e-06H36.6545C37.0938 -0.000712911 37.5288 0.0852097 37.9348 0.252853C38.3408 0.420496 38.7097 0.666568 39.0204 0.976979C39.3312 1.28739 39.5777 1.65605 39.7458 2.06184C39.9138 2.46763 40.0002 2.9026 40 3.34182V36.6545C40.0005 37.0939 39.9143 37.529 39.7465 37.9349C39.5786 38.3409 39.3324 38.7098 39.0218 39.0206C38.7113 39.3313 38.3425 39.5777 37.9366 39.7458C37.5307 39.9139 37.0957 40.0002 36.6564 40H3.34182C2.90281 40 2.46811 39.9135 2.06254 39.7454C1.65697 39.5774 1.28849 39.3311 0.978153 39.0206C0.667813 38.7101 0.421694 38.3414 0.253859 37.9358C0.0860241 37.5301 -0.000238356 37.0954 4.94656e-07 36.6564V3.34182ZM15.8327 15.2509H21.2491V17.9709C22.0309 16.4073 24.0309 15 27.0364 15C32.7982 15 34.1636 18.1145 34.1636 23.8291V34.4145H28.3327V25.1309C28.3327 21.8764 27.5509 20.04 25.5655 20.04C22.8109 20.04 21.6655 22.02 21.6655 25.1309V34.4145H15.8327V15.2509ZM5.83273 34.1655H11.6655V15H5.83273V34.1655ZM12.5 8.74909C12.511 9.2485 12.4221 9.74507 12.2386 10.2097C12.0551 10.6743 11.7806 11.0975 11.4313 11.4546C11.082 11.8117 10.6649 12.0954 10.2045 12.2891C9.74402 12.4828 9.24953 12.5826 8.75 12.5826C8.25047 12.5826 7.75598 12.4828 7.29554 12.2891C6.83509 12.0954 6.41798 11.8117 6.06867 11.4546C5.71936 11.0975 5.4449 10.6743 5.26138 10.2097C5.07787 9.74507 4.989 9.2485 5 8.74909C5.02159 7.76883 5.42615 6.83599 6.12706 6.15034C6.82797 5.4647 7.7695 5.08076 8.75 5.08076C9.7305 5.08076 10.672 5.4647 11.3729 6.15034C12.0738 6.83599 12.4784 7.76883 12.5 8.74909Z" fill="#0B65C2"/>
<path d="M54.158 29H67.496V25.568H58.37V10.8H54.158V29Z" fill="#C8C8DB"/>
<path d="M71.5914 13.062C73.0994 13.062 74.1134 12.074 74.1134 10.722C74.1134 9.474 73.0994 8.538 71.5914 8.538C70.0834 8.538 69.0694 9.526 69.0694 10.8C69.0694 12.074 70.0834 13.062 71.5914 13.062ZM69.5634 29H73.6194V15.012H69.5634V29Z" fill="#C8C8DB"/>
<path d="M85.8857 14.804C83.9877 14.804 82.3497 15.454 81.2577 16.65V15.012H77.3837V29H81.4397V22.084C81.4397 19.51 82.8437 18.314 84.7937 18.314C86.5877 18.314 87.6277 19.354 87.6277 21.616V29H91.6837V20.992C91.6837 16.728 89.1877 14.804 85.8857 14.804Z" fill="#C8C8DB"/>
<path d="M105.786 29H110.7L104.356 20.94L110.18 15.012H105.344L99.4163 20.628V9.708H95.3603V29H99.4163V25.438L101.366 23.514L105.786 29Z" fill="#C8C8DB"/>
<path d="M125.617 22.058C125.617 17.56 122.445 14.804 118.337 14.804C114.073 14.804 110.875 17.82 110.875 22.006C110.875 26.166 114.021 29.208 118.857 29.208C121.379 29.208 123.329 28.428 124.629 26.946L122.471 24.606C121.509 25.516 120.443 25.958 118.961 25.958C116.829 25.958 115.347 24.892 114.957 23.15H125.539C125.565 22.812 125.617 22.37 125.617 22.058ZM118.363 17.872C120.183 17.872 121.509 19.016 121.795 20.784H114.905C115.191 18.99 116.517 17.872 118.363 17.872Z" fill="#C8C8DB"/>
<path d="M138.509 9.708V16.494C137.495 15.35 136.039 14.804 134.323 14.804C130.371 14.804 127.329 17.612 127.329 22.006C127.329 26.4 130.371 29.208 134.323 29.208C136.195 29.208 137.677 28.61 138.691 27.388V29H142.565V9.708H138.509ZM135.025 25.88C132.997 25.88 131.437 24.424 131.437 22.006C131.437 19.588 132.997 18.132 135.025 18.132C137.027 18.132 138.587 19.588 138.587 22.006C138.587 24.424 137.027 25.88 135.025 25.88Z" fill="#C8C8DB"/>
<path d="M146.605 29H150.817V10.8H146.605V29Z" fill="#C8C8DB"/>
<path d="M163.353 14.804C161.455 14.804 159.817 15.454 158.725 16.65V15.012H154.851V29H158.907V22.084C158.907 19.51 160.311 18.314 162.261 18.314C164.055 18.314 165.095 19.354 165.095 21.616V29H169.151V20.992C169.151 16.728 166.655 14.804 163.353 14.804Z" fill="#C8C8DB"/>
</svg>
