<svg width="151" height="34" viewBox="0 0 151 34" fill="none" xmlns="http://www.w3.org/2000/svg">
<rect width="47" height="34" rx="8" fill="white" fill-opacity="0.05"/>
<path fill-rule="evenodd" clip-rule="evenodd" d="M31.9065 9.77596C31.9157 10.1976 31.9353 10.5598 31.9501 10.5809C31.9649 10.602 32.012 10.6192 32.0548 10.6192C32.0976 10.6192 32.2278 10.6454 32.3443 10.6775C32.4607 10.7095 32.6158 10.7452 32.6891 10.7567C32.8546 10.7828 33.5978 11.01 33.6882 11.0621C33.7248 11.0832 33.8142 11.1184 33.8868 11.1403C34.1288 11.2134 34.649 11.4734 35.0613 11.7274C35.2036 11.8151 35.3763 11.9214 35.4449 11.9637C35.5228 12.0116 35.5696 12.0645 35.5693 12.1041C35.569 12.139 35.4337 12.3401 35.2684 12.5509C35.1032 12.7617 34.8824 13.0471 34.7777 13.1851C33.9869 14.2276 33.8296 14.4263 33.7816 14.4432C33.726 14.4629 33.6611 14.4342 33.3885 14.2698C33.2786 14.2035 33.0912 14.102 32.9722 14.0441C32.8531 13.9863 32.7108 13.917 32.6558 13.8902C32.4879 13.8083 32.1993 13.6925 32.0064 13.6297C31.5915 13.4947 31.5912 13.4946 31.1905 13.394C30.952 13.3342 29.9883 13.2458 29.8096 13.2675C29.3659 13.3211 29.1911 13.354 29.0968 13.4019C28.4424 13.7339 28.3173 14.307 28.8074 14.728C28.985 14.8805 29.0881 14.9345 29.4088 15.0428C29.8297 15.185 30.3012 15.3067 30.7499 15.389C30.8739 15.4118 30.9909 15.4392 31.0098 15.45C31.0288 15.4608 31.1521 15.4886 31.2839 15.5118C31.7699 15.5974 32.867 15.9045 33.2719 16.0681C33.5268 16.1712 33.7316 16.2562 33.9419 16.3462C34.6125 16.6333 34.8355 16.7234 35.3059 17.2883C35.5136 17.5379 35.7054 17.8673 35.7967 18.1316C35.9633 18.6137 35.9776 18.6942 35.9939 19.2408C36.0081 19.716 36.0009 19.8255 35.9358 20.13C35.8397 20.5795 35.7408 20.8576 35.565 21.1728C35.3759 21.5116 35.2791 21.6397 34.9406 21.9995C34.6271 22.3326 33.614 22.9068 33.0554 23.0679C32.9272 23.1049 32.785 23.149 32.7393 23.1658C32.6936 23.1826 32.5383 23.2155 32.3942 23.2388C32.2501 23.2621 32.0852 23.3065 32.0277 23.3374L31.9231 23.3936L31.9142 24.156C31.9084 24.6557 31.8926 24.9324 31.8685 24.9592C31.8388 24.9922 31.5049 25 30.1234 25C29.1839 25 28.3914 24.9916 28.3625 24.9814C28.3162 24.965 28.3098 24.8605 28.3098 24.1239C28.3098 23.3561 28.3049 23.2826 28.2515 23.2563C28.2194 23.2405 28.0508 23.1966 27.8768 23.1588C27.5115 23.0794 26.8181 22.8721 26.6376 22.7883C26.5697 22.7568 26.4947 22.7308 26.4711 22.7307C26.4259 22.7303 25.6668 22.3866 25.4957 22.2889C24.8665 21.9297 24.1802 21.4524 24.1802 21.3739C24.1802 21.3425 24.4373 21.0421 24.6798 20.7901C24.7805 20.6853 24.9379 20.5117 25.0294 20.4043C25.121 20.2969 25.2559 20.1441 25.3292 20.0649C25.4024 19.9856 25.5523 19.8198 25.6622 19.6965C25.9373 19.3876 26.1823 19.1434 26.2172 19.1434C26.2332 19.1434 26.3172 19.1927 26.4038 19.2529C26.9037 19.6004 27.6884 20.0149 28.136 20.1679C28.6525 20.3446 28.8342 20.4008 28.8923 20.4019C28.9291 20.4027 29.0191 20.4235 29.0924 20.4482C29.318 20.5244 30.1591 20.6148 30.644 20.615C31.4714 20.6154 31.9683 20.4266 32.1932 20.0262C32.229 19.9624 32.2488 19.8484 32.2503 19.697C32.2524 19.4871 32.2427 19.4513 32.1469 19.3148C31.969 19.0615 31.5645 18.8431 30.9574 18.6725C30.7925 18.6262 30.5649 18.5615 30.4516 18.5286C30.3383 18.4957 30.21 18.4688 30.1667 18.4688C30.1233 18.4688 29.9987 18.4431 29.8898 18.4115C29.7809 18.38 29.6094 18.3388 29.5087 18.3201C29.1703 18.2571 28.7355 18.1503 28.4097 18.0503C28.3273 18.025 28.194 17.9916 28.1135 17.976C28.033 17.9605 27.9506 17.9356 27.9304 17.9207C27.9101 17.9058 27.8081 17.8711 27.7037 17.8436C27.5993 17.816 27.5047 17.7799 27.4936 17.7632C27.4824 17.7466 27.4473 17.7329 27.4154 17.7329C27.3498 17.7329 26.5684 17.3758 26.4172 17.2768C26.3627 17.241 26.3098 17.2117 26.2998 17.2117C26.2452 17.2117 25.9486 16.9954 25.7199 16.7889C25.2395 16.355 25.0313 15.9899 24.8683 15.2953C24.766 14.8594 24.7671 14.0166 24.8706 13.5935C25.0568 12.8319 25.3403 12.3557 25.9341 11.8071C26.4562 11.3246 27.0657 10.9832 27.8102 10.7559C28.0209 10.6916 28.2195 10.6186 28.2515 10.5937C28.3041 10.5528 28.3098 10.4746 28.3098 9.79166C28.3098 9.37548 28.3199 9.02562 28.3323 9.01424C28.3446 9.00286 29.1501 8.9971 30.1223 9.00145L31.8898 9.0094L31.9065 9.77596ZM13.1144 10.5385C13.5373 10.5982 14.8154 10.5385 14.7909 10.883C14.7625 10.9091 14.7352 15.5609 14.763 15.6402C14.8031 15.7548 14.9076 15.7244 15.0267 15.5636C15.0861 15.4834 15.2505 15.3006 15.3921 15.1573C15.5337 15.0139 15.7219 14.8121 15.8103 14.7087C16.0199 14.4637 16.8065 13.6129 17.2049 13.2003C17.2974 13.1046 17.3948 12.9967 17.4214 12.9606C17.4479 12.9245 17.5821 12.7755 17.7195 12.6295C17.8568 12.4835 18.0292 12.2975 18.1024 12.2163C18.2703 12.03 18.433 11.8532 18.7633 11.498C18.907 11.3435 19.1222 11.1099 19.2415 10.9788C19.3608 10.8477 19.486 10.7268 19.5197 10.7103C19.5577 10.6915 20.3803 10.6783 21.6891 10.6753L23.7972 10.6706L23.8079 10.7369C23.8156 10.7847 23.7459 10.8744 23.5581 11.0582C23.1845 11.424 22.8368 11.7854 22.7982 11.8481C22.7798 11.8779 22.645 12.0181 22.4984 12.1597C22.3519 12.3014 22.1271 12.5317 21.9989 12.6715C21.8707 12.8113 21.6684 13.0257 21.5493 13.1478C21.4302 13.2699 21.1979 13.5114 21.0331 13.6844C20.8682 13.8575 20.6435 14.0919 20.5336 14.2054C20.0598 14.6945 19.7831 14.9836 19.5178 15.2665C19.3621 15.4326 19.1411 15.6616 19.0266 15.7756C18.8005 16.0006 18.7679 16.0986 18.8808 16.2132C18.9152 16.248 19.1257 16.5248 19.3487 16.8284C19.826 17.4781 20.3088 18.1283 20.5213 18.4075C20.7135 18.66 21.0242 19.0788 21.511 19.7413C21.7216 20.028 21.9339 20.3109 21.9828 20.3699C22.0318 20.429 22.2549 20.7256 22.4787 21.0292C22.8309 21.5069 23.0271 21.7683 23.5308 22.4307C23.9124 22.9325 24.0293 23.0736 24.1067 23.1255L24.1945 23.1844L24.0625 23.2181C23.9899 23.2367 23.7172 23.252 23.4565 23.252C23.1754 23.2522 22.8774 23.2708 22.7239 23.2979C22.382 23.3583 19.7264 23.4865 19.5178 23.071C19.5178 23.0596 19.3781 22.8577 19.2073 22.6224C18.7722 22.0226 17.7938 20.6847 17.403 20.1553C17.0559 19.685 16.575 19.0201 16.3896 18.7542C16.3286 18.6666 16.2619 18.5891 16.2414 18.5819C16.1618 18.5541 16.0557 18.6261 15.8183 18.8694C15.6825 19.0085 15.4578 19.234 15.319 19.3705C14.9316 19.7514 14.7556 19.9662 14.7551 20.0585C14.7548 20.1033 14.7511 20.8299 14.7467 21.6731L14.7388 23.2062H12.8905H11.0422L11.025 17.043C11.0155 13.6533 11.0042 10.8774 11 10.8745C11.0001 10.5999 12.434 10.5385 13.1144 10.5385Z" fill="#FBF154"/>
<path d="M56.9961 14.0001V5.60005H61.1001C62.1561 5.60005 62.9481 5.80005 63.4761 6.20005C64.0121 6.60005 64.2801 7.12805 64.2801 7.78405C64.2801 8.22405 64.1721 8.60805 63.9561 8.93605C63.7401 9.25605 63.4441 9.50405 63.0681 9.68005C62.6921 9.85605 62.2601 9.94405 61.7721 9.94405L62.0001 9.45205C62.5281 9.45205 62.9961 9.54005 63.4041 9.71605C63.8121 9.88405 64.1281 10.1361 64.3521 10.4721C64.5841 10.8081 64.7001 11.2201 64.7001 11.7081C64.7001 12.4281 64.4161 12.9921 63.8481 13.4001C63.2801 13.8001 62.4441 14.0001 61.3401 14.0001H56.9961ZM58.9281 12.5361H61.1961C61.7001 12.5361 62.0801 12.4561 62.3361 12.2961C62.6001 12.1281 62.7321 11.8641 62.7321 11.5041C62.7321 11.1521 62.6001 10.8921 62.3361 10.7241C62.0801 10.5481 61.7001 10.4601 61.1961 10.4601H58.7841V9.04405H60.8601C61.3321 9.04405 61.6921 8.96405 61.9401 8.80405C62.1961 8.63605 62.3241 8.38405 62.3241 8.04805C62.3241 7.72005 62.1961 7.47605 61.9401 7.31605C61.6921 7.14805 61.3321 7.06405 60.8601 7.06405H58.9281V12.5361Z" fill="#E9E9F5"/>
<path d="M65.6679 14.0001L69.4119 5.60005H71.3319L75.0879 14.0001H73.0479L69.9759 6.58405H70.7439L67.6599 14.0001H65.6679ZM67.5399 12.2001L68.0559 10.7241H72.3759L72.9039 12.2001H67.5399Z" fill="#E9E9F5"/>
<path d="M80.4622 14.1441C79.8142 14.1441 79.2102 14.0401 78.6502 13.8321C78.0982 13.6161 77.6182 13.3121 77.2102 12.9201C76.8022 12.5281 76.4822 12.0681 76.2502 11.5401C76.0262 11.0121 75.9142 10.4321 75.9142 9.80005C75.9142 9.16805 76.0262 8.58805 76.2502 8.06005C76.4822 7.53205 76.8022 7.07205 77.2102 6.68005C77.6262 6.28805 78.1102 5.98805 78.6622 5.78005C79.2142 5.56405 79.8182 5.45605 80.4742 5.45605C81.2022 5.45605 81.8582 5.58405 82.4422 5.84005C83.0342 6.08805 83.5302 6.45605 83.9302 6.94405L82.6822 8.09605C82.3942 7.76805 82.0742 7.52405 81.7222 7.36405C81.3702 7.19605 80.9862 7.11205 80.5702 7.11205C80.1782 7.11205 79.8182 7.17605 79.4902 7.30405C79.1622 7.43205 78.8782 7.61605 78.6382 7.85605C78.3982 8.09605 78.2102 8.38005 78.0742 8.70805C77.9462 9.03605 77.8822 9.40005 77.8822 9.80005C77.8822 10.2001 77.9462 10.5641 78.0742 10.8921C78.2102 11.2201 78.3982 11.5041 78.6382 11.7441C78.8782 11.9841 79.1622 12.1681 79.4902 12.2961C79.8182 12.4241 80.1782 12.4881 80.5702 12.4881C80.9862 12.4881 81.3702 12.4081 81.7222 12.2481C82.0742 12.0801 82.3942 11.8281 82.6822 11.4921L83.9302 12.6441C83.5302 13.1321 83.0342 13.5041 82.4422 13.7601C81.8582 14.0161 81.1982 14.1441 80.4622 14.1441Z" fill="#E9E9F5"/>
<path d="M87.583 12.0801L87.475 9.83605L91.495 5.60005H93.655L90.031 9.50005L88.951 10.6521L87.583 12.0801ZM85.843 14.0001V5.60005H87.775V14.0001H85.843ZM91.591 14.0001L88.603 10.3401L89.875 8.96005L93.859 14.0001H91.591Z" fill="#E9E9F5"/>
<path d="M97.1138 8.98405H101.158V10.4961H97.1138V8.98405ZM97.2578 12.4401H101.83V14.0001H95.3258V5.60005H101.674V7.16005H97.2578V12.4401Z" fill="#E9E9F5"/>
<path d="M103.977 14.0001V5.60005H107.793C108.705 5.60005 109.509 5.77605 110.205 6.12805C110.901 6.47205 111.445 6.95605 111.837 7.58005C112.229 8.20405 112.425 8.94405 112.425 9.80005C112.425 10.6481 112.229 11.3881 111.837 12.0201C111.445 12.6441 110.901 13.1321 110.205 13.4841C109.509 13.8281 108.705 14.0001 107.793 14.0001H103.977ZM105.921 12.4041H107.697C108.257 12.4041 108.741 12.3001 109.149 12.0921C109.565 11.8761 109.885 11.5721 110.109 11.1801C110.341 10.7881 110.457 10.3281 110.457 9.80005C110.457 9.26405 110.341 8.80405 110.109 8.42005C109.885 8.02805 109.565 7.72805 109.149 7.52005C108.741 7.30405 108.257 7.19605 107.697 7.19605H105.921V12.4041Z" fill="#E9E9F5"/>
<path d="M118.489 14.0001V5.60005H122.593C123.649 5.60005 124.441 5.80005 124.969 6.20005C125.505 6.60005 125.773 7.12805 125.773 7.78405C125.773 8.22405 125.665 8.60805 125.449 8.93605C125.233 9.25605 124.937 9.50405 124.561 9.68005C124.185 9.85605 123.753 9.94405 123.265 9.94405L123.493 9.45205C124.021 9.45205 124.489 9.54005 124.897 9.71605C125.305 9.88405 125.621 10.1361 125.845 10.4721C126.077 10.8081 126.193 11.2201 126.193 11.7081C126.193 12.4281 125.909 12.9921 125.341 13.4001C124.773 13.8001 123.937 14.0001 122.833 14.0001H118.489ZM120.421 12.5361H122.689C123.193 12.5361 123.573 12.4561 123.829 12.2961C124.093 12.1281 124.225 11.8641 124.225 11.5041C124.225 11.1521 124.093 10.8921 123.829 10.7241C123.573 10.5481 123.193 10.4601 122.689 10.4601H120.277V9.04405H122.353C122.825 9.04405 123.185 8.96405 123.433 8.80405C123.689 8.63605 123.817 8.38405 123.817 8.04805C123.817 7.72005 123.689 7.47605 123.433 7.31605C123.185 7.14805 122.825 7.06405 122.353 7.06405H120.421V12.5361Z" fill="#E9E9F5"/>
<path d="M130.177 14.0001V10.5681L130.621 11.7441L126.925 5.60005H128.989L131.821 10.3161H130.633L133.477 5.60005H135.385L131.689 11.7441L132.121 10.5681V14.0001H130.177Z" fill="#E9E9F5"/>
<path d="M58.7361 27.0801L58.6281 24.8361L62.6481 20.6001H64.8081L61.1841 24.5001L60.1041 25.6521L58.7361 27.0801ZM56.9961 29.0001V20.6001H58.9281V29.0001H56.9961ZM62.7441 29.0001L59.7561 25.3401L61.0281 23.9601L65.0121 29.0001H62.7441Z" fill="#FBF154"/>
<path d="M66.4789 29.0001V20.6001H68.4229V29.0001H66.4789Z" fill="#FBF154"/>
<path d="M71.0164 29.0001V20.6001H74.6524C75.4044 20.6001 76.0524 20.7241 76.5964 20.9721C77.1404 21.2121 77.5604 21.5601 77.8564 22.0161C78.1524 22.4721 78.3004 23.0161 78.3004 23.6481C78.3004 24.2721 78.1524 24.8121 77.8564 25.2681C77.5604 25.7161 77.1404 26.0601 76.5964 26.3001C76.0524 26.5401 75.4044 26.6601 74.6524 26.6601H72.0964L72.9604 25.8081V29.0001H71.0164ZM76.3564 29.0001L74.2564 25.9521H76.3324L78.4564 29.0001H76.3564ZM72.9604 26.0241L72.0964 25.1121H74.5444C75.1444 25.1121 75.5924 24.9841 75.8884 24.7281C76.1844 24.4641 76.3324 24.1041 76.3324 23.6481C76.3324 23.1841 76.1844 22.8241 75.8884 22.5681C75.5924 22.3121 75.1444 22.1841 74.5444 22.1841H72.0964L72.9604 21.2601V26.0241Z" fill="#FBF154"/>
<path d="M80.4406 29.0001V20.6001H82.3846V29.0001H80.4406Z" fill="#FBF154"/>
<path d="M84.9781 29.0001V20.6001H86.9221V27.4161H91.1341V29.0001H84.9781Z" fill="#FBF154"/>
<path d="M92.8203 29.0001V20.6001H94.7643V27.4161H98.9763V29.0001H92.8203Z" fill="#FBF154"/>
<path d="M106.449 23.9841H110.493V25.4961H106.449V23.9841ZM106.593 27.4401H111.165V29.0001H104.661V20.6001H111.009V22.1601H106.593V27.4401Z" fill="#FBF154"/>
<path d="M115.715 29.0001L112.091 20.6001H114.191L117.359 28.0401H116.123L119.339 20.6001H121.271L117.635 29.0001H115.715Z" fill="#FBF154"/>
<path d="M121.187 29.0001L124.931 20.6001H126.851L130.607 29.0001H128.567L125.495 21.5841H126.263L123.179 29.0001H121.187ZM123.059 27.2001L123.575 25.7241H127.895L128.423 27.2001H123.059Z" fill="#FBF154"/>
<path d="M132.078 29.0001V20.6001H133.686L138.642 26.6481H137.862V20.6001H139.782V29.0001H138.186L133.218 22.9521H133.998V29.0001H132.078Z" fill="#FBF154"/>
<path d="M145.13 29.1441C144.458 29.1441 143.814 29.0561 143.198 28.8801C142.582 28.6961 142.086 28.4601 141.71 28.1721L142.37 26.7081C142.73 26.9641 143.154 27.1761 143.642 27.3441C144.138 27.5041 144.638 27.5841 145.142 27.5841C145.526 27.5841 145.834 27.5481 146.066 27.4761C146.306 27.3961 146.482 27.2881 146.594 27.1521C146.706 27.0161 146.762 26.8601 146.762 26.6841C146.762 26.4601 146.674 26.2841 146.498 26.1561C146.322 26.0201 146.09 25.9121 145.802 25.8321C145.514 25.7441 145.194 25.6641 144.842 25.5921C144.498 25.5121 144.15 25.4161 143.798 25.3041C143.454 25.1921 143.138 25.0481 142.85 24.8721C142.562 24.6961 142.326 24.4641 142.142 24.1761C141.966 23.8881 141.878 23.5201 141.878 23.0721C141.878 22.5921 142.006 22.1561 142.262 21.7641C142.526 21.3641 142.918 21.0481 143.438 20.8161C143.966 20.5761 144.626 20.4561 145.418 20.4561C145.946 20.4561 146.466 20.5201 146.978 20.6481C147.49 20.7681 147.942 20.9521 148.334 21.2001L147.734 22.6761C147.342 22.4521 146.95 22.2881 146.558 22.1841C146.166 22.0721 145.782 22.0161 145.406 22.0161C145.03 22.0161 144.722 22.0601 144.482 22.1481C144.242 22.2361 144.07 22.3521 143.966 22.4961C143.862 22.6321 143.81 22.7921 143.81 22.9761C143.81 23.1921 143.898 23.3681 144.074 23.5041C144.25 23.6321 144.482 23.7361 144.77 23.8161C145.058 23.8961 145.374 23.9761 145.718 24.0561C146.07 24.1361 146.418 24.2281 146.762 24.3321C147.114 24.4361 147.434 24.5761 147.722 24.7521C148.01 24.9281 148.242 25.1601 148.418 25.4481C148.602 25.7361 148.694 26.1001 148.694 26.5401C148.694 27.0121 148.562 27.4441 148.298 27.8361C148.034 28.2281 147.638 28.5441 147.11 28.7841C146.59 29.0241 145.93 29.1441 145.13 29.1441Z" fill="#FBF154"/>
</svg>
