<svg width="31" height="24" viewBox="0 0 31 24" fill="none" xmlns="http://www.w3.org/2000/svg">
<path d="M19.6989 10.739C19.9451 11.6698 19.9141 12.654 19.6097 13.5673C19.3054 14.4805 18.7414 15.2816 17.9892 15.8691C17.237 16.4567 16.3304 16.8043 15.3841 16.868C14.4379 16.9317 13.4945 16.7086 12.6734 16.2269C11.8523 15.7452 11.1905 15.0266 10.7716 14.162C10.3527 13.2975 10.1957 12.3259 10.3204 11.3702C10.4451 10.4145 10.8458 9.51764 11.472 8.79321C12.0981 8.06879 12.9215 7.54934 13.8379 7.30062C15.0632 6.96803 16.3679 7.14257 17.4662 7.78599C18.5644 8.42941 19.3668 9.48927 19.6974 10.7334L19.6989 10.739Z" fill="#E9E9F5"/>
<path d="M1.2453 13.1613C0.719761 12.8188 0.434141 12.6678 0 12.3485C0.921627 11.6007 1.77962 10.7753 2.56486 9.88108C3.3646 9.05086 4.11292 8.17419 4.84982 7.30913C6.56353 5.29454 8.22583 3.38446 10.3051 2.15364C12.557 0.820234 15.217 0.387739 17.7658 0.940606C20.3146 1.49347 22.5691 2.99201 24.0891 5.14359C24.7575 6.08993 25.5172 7.12335 26.3741 8.14516C21.8499 6.14218 16.2632 4.41207 12.8757 6.02607C11.8221 6.43397 10.8959 7.12248 10.1942 8.0194C9.49245 8.91632 9.04111 9.9886 8.88747 11.1238C8.73383 12.259 8.88355 13.4153 9.32093 14.4715C9.75831 15.5277 10.4672 16.4448 11.3734 17.1266C7.68316 16.5228 3.67306 14.5315 1.2453 13.1613ZM27.5908 14.1193C26.7911 14.9495 26.0428 15.8262 25.3059 16.6912C23.5922 18.7058 21.9298 20.6159 19.8505 21.8467C17.5987 23.1801 14.9387 23.6126 12.3899 23.0597C9.8411 22.5069 7.58659 21.0083 6.06656 18.8567C5.39821 17.9104 4.63846 16.877 3.7816 15.8552C8.30581 17.8814 13.8868 19.5825 17.2571 17.9685C18.3158 17.5642 19.2474 16.8771 19.9539 15.9795C20.6603 15.082 21.1153 14.0073 21.2709 12.8689C21.4265 11.7304 21.2769 10.5704 20.8379 9.51113C20.3989 8.45189 19.6868 7.53269 18.7766 6.85048C22.4668 7.43106 26.4769 9.44565 28.9047 10.8158C29.4302 11.1583 29.7158 11.3093 30.15 11.6286C29.2296 12.3822 28.3735 13.2134 27.5908 14.1135V14.1193Z" fill="#E9E9F5"/>
</svg>
