<svg width="144" height="34" viewBox="0 0 144 34" fill="none" xmlns="http://www.w3.org/2000/svg">
<path d="M53 14.0001V5.60005H56.816C57.728 5.60005 58.532 5.77605 59.228 6.12805C59.924 6.47205 60.468 6.95605 60.86 7.58005C61.252 8.20405 61.448 8.94405 61.448 9.80005C61.448 10.6481 61.252 11.3881 60.86 12.0201C60.468 12.6441 59.924 13.1321 59.228 13.4841C58.532 13.8281 57.728 14.0001 56.816 14.0001H53ZM54.944 12.4041H56.72C57.28 12.4041 57.764 12.3001 58.172 12.0921C58.588 11.8761 58.908 11.5721 59.132 11.1801C59.364 10.7881 59.48 10.3281 59.48 9.80005C59.48 9.26405 59.364 8.80405 59.132 8.42005C58.908 8.02805 58.588 7.72805 58.172 7.52005C57.764 7.30405 57.28 7.19605 56.72 7.19605H54.944V12.4041Z" fill="#E9E9F5"/>
<path d="M67.2461 14.1441C66.0541 14.1441 65.1221 13.8121 64.4501 13.1481C63.7781 12.4841 63.4421 11.5361 63.4421 10.3041V5.60005H65.3861V10.2321C65.3861 11.0321 65.5501 11.6081 65.8781 11.9601C66.2061 12.3121 66.6661 12.4881 67.2581 12.4881C67.8501 12.4881 68.3101 12.3121 68.6381 11.9601C68.9661 11.6081 69.1301 11.0321 69.1301 10.2321V5.60005H71.0501V10.3041C71.0501 11.5361 70.7141 12.4841 70.0421 13.1481C69.3701 13.8121 68.4381 14.1441 67.2461 14.1441Z" fill="#E9E9F5"/>
<path d="M76.3311 14.1441C75.6591 14.1441 75.0151 14.0561 74.3991 13.8801C73.7831 13.6961 73.2871 13.4601 72.9111 13.1721L73.5711 11.7081C73.9311 11.9641 74.3551 12.1761 74.8431 12.3441C75.3391 12.5041 75.8391 12.5841 76.3431 12.5841C76.7271 12.5841 77.0351 12.5481 77.2671 12.4761C77.5071 12.3961 77.6831 12.2881 77.7951 12.1521C77.9071 12.0161 77.9631 11.8601 77.9631 11.6841C77.9631 11.4601 77.8751 11.2841 77.6991 11.1561C77.5231 11.0201 77.2911 10.9121 77.0031 10.8321C76.7151 10.7441 76.3951 10.6641 76.0431 10.5921C75.6991 10.5121 75.3511 10.4161 74.9991 10.3041C74.6551 10.1921 74.3391 10.0481 74.0511 9.87205C73.7631 9.69605 73.5271 9.46405 73.3431 9.17605C73.1671 8.88805 73.0791 8.52005 73.0791 8.07205C73.0791 7.59205 73.2071 7.15605 73.4631 6.76405C73.7271 6.36405 74.1191 6.04805 74.6391 5.81605C75.1671 5.57605 75.8271 5.45605 76.6191 5.45605C77.1471 5.45605 77.6671 5.52005 78.1791 5.64805C78.6911 5.76805 79.1431 5.95205 79.5351 6.20005L78.9351 7.67605C78.5431 7.45205 78.1511 7.28805 77.7591 7.18405C77.3671 7.07205 76.9831 7.01605 76.6071 7.01605C76.2311 7.01605 75.9231 7.06005 75.6831 7.14805C75.4431 7.23605 75.2711 7.35205 75.1671 7.49605C75.0631 7.63205 75.0111 7.79205 75.0111 7.97605C75.0111 8.19205 75.0991 8.36805 75.2751 8.50405C75.4511 8.63205 75.6831 8.73605 75.9711 8.81605C76.2591 8.89605 76.5751 8.97605 76.9191 9.05605C77.2711 9.13605 77.6191 9.22805 77.9631 9.33205C78.3151 9.43605 78.6351 9.57605 78.9231 9.75205C79.2111 9.92805 79.4431 10.1601 79.6191 10.4481C79.8031 10.7361 79.8951 11.1001 79.8951 11.5401C79.8951 12.0121 79.7631 12.4441 79.4991 12.8361C79.2351 13.2281 78.8391 13.5441 78.3111 13.7841C77.7911 14.0241 77.1311 14.1441 76.3311 14.1441Z" fill="#E9E9F5"/>
<path d="M83.4462 14.0001V7.18405H80.7582V5.60005H88.0783V7.18405H85.3903V14.0001H83.4462Z" fill="#E9E9F5"/>
<path d="M54.8 24.3801H58.832V25.9401H54.8V24.3801ZM54.944 29.0001H53V20.6001H59.348V22.1601H54.944V29.0001Z" fill="#E9E9F5"/>
<path d="M65.262 29.1441C64.598 29.1441 63.982 29.0361 63.414 28.8201C62.854 28.6041 62.366 28.3001 61.95 27.9081C61.542 27.5161 61.222 27.0561 60.99 26.5281C60.766 26.0001 60.654 25.4241 60.654 24.8001C60.654 24.1761 60.766 23.6001 60.99 23.0721C61.222 22.5441 61.546 22.0841 61.962 21.6921C62.378 21.3001 62.866 20.9961 63.426 20.7801C63.986 20.5641 64.594 20.4561 65.25 20.4561C65.914 20.4561 66.522 20.5641 67.074 20.7801C67.634 20.9961 68.118 21.3001 68.526 21.6921C68.942 22.0841 69.266 22.5441 69.498 23.0721C69.73 23.5921 69.846 24.1681 69.846 24.8001C69.846 25.4241 69.73 26.0041 69.498 26.5401C69.266 27.0681 68.942 27.5281 68.526 27.9201C68.118 28.3041 67.634 28.6041 67.074 28.8201C66.522 29.0361 65.918 29.1441 65.262 29.1441ZM65.25 27.4881C65.626 27.4881 65.97 27.4241 66.282 27.2961C66.602 27.1681 66.882 26.9841 67.122 26.7441C67.362 26.5041 67.546 26.2201 67.674 25.8921C67.81 25.5641 67.878 25.2001 67.878 24.8001C67.878 24.4001 67.81 24.0361 67.674 23.7081C67.546 23.3801 67.362 23.0961 67.122 22.8561C66.89 22.6161 66.614 22.4321 66.294 22.3041C65.974 22.1761 65.626 22.1121 65.25 22.1121C64.874 22.1121 64.526 22.1761 64.206 22.3041C63.894 22.4321 63.618 22.6161 63.378 22.8561C63.138 23.0961 62.95 23.3801 62.814 23.7081C62.686 24.0361 62.622 24.4001 62.622 24.8001C62.622 25.1921 62.686 25.5561 62.814 25.8921C62.95 26.2201 63.134 26.5041 63.366 26.7441C63.606 26.9841 63.886 27.1681 64.206 27.2961C64.526 27.4241 64.874 27.4881 65.25 27.4881Z" fill="#E9E9F5"/>
<path d="M75.639 29.1441C74.447 29.1441 73.515 28.8121 72.843 28.1481C72.171 27.4841 71.835 26.5361 71.835 25.3041V20.6001H73.779V25.2321C73.779 26.0321 73.943 26.6081 74.271 26.9601C74.599 27.3121 75.059 27.4881 75.651 27.4881C76.243 27.4881 76.703 27.3121 77.031 26.9601C77.359 26.6081 77.523 26.0321 77.523 25.2321V20.6001H79.443V25.3041C79.443 26.5361 79.107 27.4841 78.435 28.1481C77.763 28.8121 76.831 29.1441 75.639 29.1441Z" fill="#E9E9F5"/>
<path d="M81.9641 29.0001V20.6001H83.5721L88.5281 26.6481H87.7481V20.6001H89.6681V29.0001H88.0721L83.1041 22.9521H83.8841V29.0001H81.9641Z" fill="#E9E9F5"/>
<path d="M92.2555 29.0001V20.6001H96.0715C96.9835 20.6001 97.7875 20.7761 98.4835 21.1281C99.1795 21.4721 99.7235 21.9561 100.115 22.5801C100.507 23.2041 100.703 23.9441 100.703 24.8001C100.703 25.6481 100.507 26.3881 100.115 27.0201C99.7235 27.6441 99.1795 28.1321 98.4835 28.4841C97.7875 28.8281 96.9835 29.0001 96.0715 29.0001H92.2555ZM94.1995 27.4041H95.9755C96.5355 27.4041 97.0195 27.3001 97.4275 27.0921C97.8435 26.8761 98.1635 26.5721 98.3875 26.1801C98.6195 25.7881 98.7355 25.3281 98.7355 24.8001C98.7355 24.2641 98.6195 23.8041 98.3875 23.4201C98.1635 23.0281 97.8435 22.7281 97.4275 22.5201C97.0195 22.3041 96.5355 22.1961 95.9755 22.1961H94.1995V27.4041Z" fill="#E9E9F5"/>
<path d="M101.548 29.0001L105.292 20.6001H107.212L110.968 29.0001H108.928L105.856 21.5841H106.624L103.54 29.0001H101.548ZM103.42 27.2001L103.936 25.7241H108.256L108.784 27.2001H103.42Z" fill="#E9E9F5"/>
<path d="M113.758 29.0001V22.1841H111.07V20.6001H118.39V22.1841H115.702V29.0001H113.758Z" fill="#E9E9F5"/>
<path d="M120.036 29.0001V20.6001H121.98V29.0001H120.036Z" fill="#E9E9F5"/>
<path d="M128.653 29.1441C127.989 29.1441 127.373 29.0361 126.805 28.8201C126.245 28.6041 125.757 28.3001 125.341 27.9081C124.933 27.5161 124.613 27.0561 124.381 26.5281C124.157 26.0001 124.045 25.4241 124.045 24.8001C124.045 24.1761 124.157 23.6001 124.381 23.0721C124.613 22.5441 124.937 22.0841 125.353 21.6921C125.769 21.3001 126.257 20.9961 126.817 20.7801C127.377 20.5641 127.985 20.4561 128.641 20.4561C129.305 20.4561 129.913 20.5641 130.465 20.7801C131.025 20.9961 131.509 21.3001 131.917 21.6921C132.333 22.0841 132.657 22.5441 132.889 23.0721C133.121 23.5921 133.237 24.1681 133.237 24.8001C133.237 25.4241 133.121 26.0041 132.889 26.5401C132.657 27.0681 132.333 27.5281 131.917 27.9201C131.509 28.3041 131.025 28.6041 130.465 28.8201C129.913 29.0361 129.309 29.1441 128.653 29.1441ZM128.641 27.4881C129.017 27.4881 129.361 27.4241 129.673 27.2961C129.993 27.1681 130.273 26.9841 130.513 26.7441C130.753 26.5041 130.937 26.2201 131.065 25.8921C131.201 25.5641 131.269 25.2001 131.269 24.8001C131.269 24.4001 131.201 24.0361 131.065 23.7081C130.937 23.3801 130.753 23.0961 130.513 22.8561C130.281 22.6161 130.005 22.4321 129.685 22.3041C129.365 22.1761 129.017 22.1121 128.641 22.1121C128.265 22.1121 127.917 22.1761 127.597 22.3041C127.285 22.4321 127.009 22.6161 126.769 22.8561C126.529 23.0961 126.341 23.3801 126.205 23.7081C126.077 24.0361 126.013 24.4001 126.013 24.8001C126.013 25.1921 126.077 25.5561 126.205 25.8921C126.341 26.2201 126.525 26.5041 126.757 26.7441C126.997 26.9841 127.277 27.1681 127.597 27.2961C127.917 27.4241 128.265 27.4881 128.641 27.4881Z" fill="#E9E9F5"/>
<path d="M135.298 29.0001V20.6001H136.906L141.862 26.6481H141.082V20.6001H143.002V29.0001H141.406L136.438 22.9521H137.218V29.0001H135.298Z" fill="#E9E9F5"/>
<path d="M28.1695 15.2134C28.5215 16.5319 28.4771 17.9263 28.0419 19.22C27.6067 20.5138 26.8002 21.6486 25.7246 22.481C24.649 23.3134 23.3525 23.8059 21.9993 23.8961C20.6461 23.9863 19.2971 23.6702 18.123 22.9878C16.9488 22.3054 16.0024 21.2874 15.4034 20.0626C14.8044 18.8379 14.5799 17.4614 14.7581 16.1075C14.9364 14.7536 15.5095 13.4831 16.4049 12.4568C17.3003 11.4305 18.4778 10.6947 19.7882 10.3423C21.5404 9.87114 23.4061 10.1184 24.9766 11.0299C26.5471 11.9414 27.6945 13.4429 28.1673 15.2054L28.1695 15.2134Z" fill="#E9E9F5"/>
<path d="M1.78078 18.645C1.02926 18.1597 0.620822 17.9459 0 17.4935C1.31793 16.4341 2.54485 15.2648 3.66775 13.9979C4.81137 12.8218 5.88147 11.5799 6.93524 10.3544C9.38585 7.50036 11.7629 4.7944 14.7364 3.05074C17.9565 1.16175 21.7604 0.549052 25.4051 1.33228C29.0499 2.11551 32.2738 4.23843 34.4475 7.28652C35.4032 8.62716 36.4896 10.0912 37.7149 11.5387C31.2453 8.70118 23.2563 6.25019 18.4123 8.53668C16.9056 9.11455 15.5811 10.0899 14.5776 11.3606C13.5742 12.6312 12.9288 14.1503 12.7091 15.7585C12.4894 17.3667 12.7035 19.0048 13.3289 20.501C13.9544 21.9973 14.9681 23.2965 16.2639 24.2625C10.9869 23.4071 5.25248 20.586 1.78078 18.645ZM39.4549 20.002C38.3113 21.1782 37.2412 22.4201 36.1874 23.6456C33.7368 26.4996 31.3597 29.2056 28.3863 30.9493C25.1661 32.8383 21.3623 33.4509 17.7175 32.6677C14.0728 31.8845 10.8488 29.7616 8.67517 26.7135C7.71943 25.3728 6.633 23.9088 5.40769 22.4613C11.8773 25.3317 19.8581 27.7416 24.6777 25.4551C26.1915 24.8824 27.5238 23.9089 28.534 22.6374C29.5442 21.3659 30.1949 19.8434 30.4174 18.2306C30.6399 16.6178 30.426 14.9745 29.7982 13.4739C29.1704 11.9733 28.1521 10.6711 26.8506 9.7046C32.1275 10.5271 37.862 13.3811 41.3337 15.3221C42.0852 15.8074 42.4936 16.0212 43.1145 16.4736C41.7984 17.5412 40.5742 18.7188 39.4549 19.9938V20.002Z" fill="#E9E9F5"/>
</svg>
