<svg width="29" height="24" viewBox="0 0 29 24" fill="none" xmlns="http://www.w3.org/2000/svg">
<rect width="28.142" height="24" rx="4.74811" fill="white" fill-opacity="0.05"/>
<path fill-rule="evenodd" clip-rule="evenodd" d="M19.7155 6.94856C19.7216 7.24621 19.7348 7.50193 19.7447 7.5168C19.7547 7.53169 19.7863 7.54386 19.815 7.54386C19.8437 7.54386 19.9311 7.56237 20.0092 7.58501C20.0874 7.60763 20.1915 7.6328 20.2407 7.64097C20.3517 7.65937 20.8505 7.81973 20.9111 7.85653C20.9357 7.87144 20.9957 7.89629 21.0444 7.91177C21.2068 7.96335 21.5559 8.14692 21.8326 8.32625C21.9281 8.38811 22.044 8.46316 22.09 8.49304C22.1423 8.52687 22.1737 8.56421 22.1735 8.59218C22.1733 8.61683 22.0825 8.7588 21.9716 8.90762C21.8607 9.05644 21.7125 9.25791 21.6423 9.35534C21.1116 10.0913 21.006 10.2315 20.9738 10.2435C20.9365 10.2574 20.8929 10.2372 20.71 10.1211C20.6362 10.0743 20.5105 10.0026 20.4306 9.96176C20.3507 9.92092 20.2552 9.87201 20.2183 9.8531C20.1056 9.79525 19.9119 9.71354 19.7825 9.6692C19.5041 9.57387 19.5038 9.57381 19.235 9.50283C19.0749 9.46057 18.4282 9.39821 18.3083 9.41347C18.0105 9.45131 17.8932 9.47458 17.83 9.50834C17.3908 9.74274 17.3068 10.1473 17.6357 10.4446C17.7549 10.5523 17.8241 10.5904 18.0393 10.6668C18.3218 10.7672 18.6382 10.8531 18.9393 10.9112C19.0225 10.9273 19.101 10.9467 19.1137 10.9543C19.1264 10.9619 19.2092 10.9815 19.2977 10.9979C19.6238 11.0584 20.36 11.2751 20.6318 11.3907C20.8028 11.4634 20.9403 11.5234 21.0814 11.587C21.5314 11.7896 21.6811 11.8533 21.9967 12.2521C22.1361 12.4283 22.2648 12.6608 22.3261 12.8474C22.4379 13.1878 22.4475 13.2446 22.4584 13.6305C22.468 13.966 22.4632 14.0433 22.4195 14.2582C22.355 14.5756 22.2886 14.7719 22.1706 14.9944C22.0437 15.2336 21.9788 15.324 21.7516 15.578C21.5412 15.8132 20.8614 16.2185 20.4865 16.3323C20.4005 16.3584 20.305 16.3895 20.2743 16.4014C20.2437 16.4133 20.1395 16.4365 20.0428 16.4529C19.9461 16.4694 19.8354 16.5007 19.7968 16.5226L19.7266 16.5622L19.7206 17.1004C19.7167 17.4532 19.7062 17.6486 19.69 17.6675C19.67 17.6908 19.4459 17.6963 18.5189 17.6963C17.8884 17.6963 17.3566 17.6904 17.3371 17.6832C17.3061 17.6716 17.3018 17.5979 17.3018 17.0778C17.3018 16.5358 17.2985 16.4839 17.2627 16.4653C17.2411 16.4542 17.128 16.4232 17.0112 16.3965C16.7661 16.3404 16.3008 16.1941 16.1796 16.1349C16.134 16.1127 16.0837 16.0943 16.0679 16.0942C16.0376 16.094 15.5281 15.8513 15.4133 15.7823C14.991 15.5288 14.5305 15.1918 14.5305 15.1363C14.5305 15.1142 14.703 14.9021 14.8658 14.7242C14.9334 14.6503 15.039 14.5277 15.1004 14.4519C15.1619 14.376 15.2524 14.2682 15.3016 14.2123C15.3507 14.1563 15.4513 14.0393 15.525 13.9521C15.7096 13.7341 15.8741 13.5617 15.8975 13.5617C15.9082 13.5617 15.9646 13.5965 16.0227 13.639C16.3582 13.8843 16.8848 14.177 17.1851 14.285C17.5318 14.4097 17.6537 14.4494 17.6927 14.4502C17.7174 14.4507 17.7778 14.4654 17.827 14.4829C17.9784 14.5366 18.5428 14.6005 18.8682 14.6006C19.4235 14.6009 19.757 14.4676 19.9078 14.1849C19.9319 14.1399 19.9452 14.0594 19.9462 13.9525C19.9476 13.8043 19.9411 13.7791 19.8768 13.6827C19.7574 13.5039 19.486 13.3497 19.0785 13.2293C18.9679 13.1966 18.8152 13.1509 18.7391 13.1277C18.6631 13.1045 18.577 13.0855 18.5479 13.0855C18.5188 13.0855 18.4352 13.0673 18.3621 13.045C18.289 13.0228 18.1739 12.9937 18.1063 12.9805C17.8793 12.936 17.5875 12.8606 17.3688 12.79C17.3135 12.7721 17.2241 12.7486 17.1701 12.7376C17.1161 12.7266 17.0608 12.709 17.0472 12.6985C17.0336 12.688 16.9651 12.6635 16.8951 12.6441C16.825 12.6246 16.7615 12.5991 16.7541 12.5873C16.7465 12.5756 16.723 12.566 16.7016 12.566C16.6575 12.566 16.1332 12.3139 16.0317 12.2439C15.9951 12.2186 15.9596 12.198 15.9529 12.198C15.9163 12.198 15.7172 12.0453 15.5638 11.8995C15.2414 11.5931 15.1017 11.3355 14.9923 10.845C14.9236 10.5373 14.9244 9.94237 14.9938 9.64362C15.1188 9.10597 15.309 8.76981 15.7075 8.38246C16.0579 8.04187 16.4669 7.80083 16.9665 7.64038C17.1079 7.59499 17.2412 7.54345 17.2627 7.52585C17.298 7.49697 17.3018 7.44179 17.3018 6.95965C17.3018 6.66583 17.3086 6.41884 17.3169 6.41081C17.3252 6.40278 17.8657 6.39871 18.5181 6.40178L19.7043 6.40739L19.7155 6.94856ZM7.1045 7.48687C7.38826 7.52904 8.24599 7.48687 8.22954 7.73009C8.2105 7.74851 8.19218 11.0326 8.21081 11.0886C8.23772 11.1694 8.30783 11.148 8.3878 11.0344C8.42762 10.9779 8.53796 10.8488 8.63299 10.7476C8.72801 10.6464 8.85431 10.5039 8.91364 10.4309C9.05428 10.258 9.58216 9.65734 9.84952 9.36608C9.91159 9.29846 9.97696 9.2223 9.99479 9.1968C10.0126 9.17132 10.1026 9.06614 10.1948 8.96306C10.287 8.86 10.4027 8.72873 10.4518 8.67134C10.5645 8.53988 10.6737 8.41506 10.8953 8.1643C10.9918 8.05522 11.1362 7.89025 11.2162 7.79771C11.2963 7.70517 11.3803 7.61986 11.403 7.60815C11.4285 7.59492 11.9805 7.58557 12.8588 7.58349L14.2735 7.58014L14.2807 7.62694C14.2858 7.66069 14.239 7.724 14.113 7.85378C13.8623 8.11203 13.629 8.36718 13.603 8.41147C13.5908 8.43247 13.5002 8.53144 13.4019 8.63145C13.3036 8.73143 13.1527 8.89402 13.0667 8.99274C12.9806 9.09145 12.8449 9.24276 12.765 9.32898C12.6851 9.4152 12.5292 9.58569 12.4186 9.70784C12.3079 9.83 12.1571 9.99549 12.0833 10.0756C11.7654 10.4209 11.5797 10.625 11.4017 10.8247C11.2972 10.942 11.1489 11.1037 11.072 11.1841C10.9203 11.343 10.8984 11.4121 10.9742 11.4931C10.9973 11.5176 11.1385 11.7131 11.2882 11.9274C11.6085 12.3861 11.9325 12.8451 12.0751 13.0422C12.2041 13.2204 12.4126 13.5161 12.7392 13.9838C12.8806 14.1862 13.0231 14.3859 13.0559 14.4276C13.0887 14.4693 13.2385 14.6787 13.3887 14.893C13.625 15.2303 13.7567 15.4148 14.0947 15.8825C14.3508 16.2367 14.4293 16.3363 14.4812 16.373L14.5401 16.4145L14.4515 16.4384C14.4028 16.4515 14.2198 16.4622 14.0449 16.4623C13.8562 16.4624 13.6562 16.4755 13.5532 16.4947C13.3238 16.5373 11.5417 16.6278 11.4017 16.3345C11.4017 16.3265 11.3079 16.1839 11.1933 16.0178C10.9013 15.5943 10.2447 14.6498 9.98246 14.2761C9.74956 13.9441 9.42682 13.4747 9.30242 13.2869C9.26146 13.2251 9.21669 13.1704 9.20295 13.1653C9.14951 13.1456 9.07831 13.1965 8.91898 13.3683C8.82787 13.4665 8.6771 13.6256 8.58393 13.722C8.32399 13.9909 8.20583 14.1426 8.2055 14.2077C8.20532 14.2394 8.20281 14.7523 8.19991 15.3476L8.19461 16.43H6.95425H5.71389L5.70231 12.0789C5.69594 9.68583 5.68839 7.72615 5.68555 7.72407C5.6856 7.53025 6.6479 7.48687 7.1045 7.48687Z" fill="#FBF154"/>
</svg>
