<svg width="30" height="30" viewBox="0 0 30 30" fill="none" xmlns="http://www.w3.org/2000/svg">
<path d="M12.7002 16.2709C12.2837 15.3416 11.8112 13.8995 11.8753 12.137C11.9714 9.63745 13.1087 7.67465 14.23 6.32873C15.3994 4.92673 17.2175 4.22172 19.0276 4.47008C19.7003 4.5582 20.4132 4.6944 21.166 4.87065C22.6157 5.21514 23.8652 5.66378 24.8904 6.11242C22.5036 4.42201 20.1168 2.7316 17.7301 1.0492C15.3913 -0.601159 12.1796 -0.280702 10.2654 1.84233C9.38438 2.81171 8.53539 4.02945 7.87863 5.51957C7.14178 7.18595 6.83742 8.75619 6.7333 10.046C6.59714 11.6724 7.27793 13.2666 8.53539 14.3081C8.85577 14.5725 9.22419 14.8369 9.62466 15.0852C10.818 15.8063 11.9474 16.1267 12.7002 16.2709ZM17.2655 13.7153C17.682 14.6446 18.1706 16.0867 18.1065 17.8492C18.0184 20.3487 16.8891 22.3115 15.7678 23.6655C14.5984 25.0755 12.7883 25.7805 10.9782 25.5401C10.3054 25.452 9.59262 25.3238 8.83975 25.1476C7.39006 24.8031 6.1326 24.3625 5.11542 23.9138C7.5102 25.5962 9.89697 27.2786 12.2918 28.961C14.6305 30.6034 17.8502 30.2749 19.7564 28.1439C20.6294 27.1665 21.4784 25.9567 22.1352 24.4586C22.864 22.7922 23.1684 21.222 23.2645 19.9241C23.3926 18.2978 22.7118 16.7035 21.4544 15.6701C21.134 15.4057 20.7656 15.1413 20.3571 14.893C19.1477 14.1799 18.0184 13.8675 17.2655 13.7153ZM13.7254 12.7058C14.6545 12.2892 16.0962 11.8085 17.8662 11.8807C20.3651 11.9768 22.3274 13.1144 23.673 14.236C25.0746 15.4057 25.7794 17.2243 25.5311 19.0349C25.443 19.7078 25.3069 20.4208 25.1306 21.1739C24.7863 22.624 24.3377 23.8738 23.8892 24.8992C25.5792 22.5118 27.2691 20.1244 28.9511 17.737C30.601 15.3977 30.2806 12.1851 28.1582 10.2704C27.189 9.3891 25.9716 8.53988 24.4819 7.88295C22.816 7.1459 21.2461 6.84146 19.9566 6.73731C18.3308 6.60112 16.7369 7.28209 15.6957 8.53989C15.4314 8.86034 15.1671 9.22887 14.9188 9.62944C14.19 10.8151 13.8696 11.9447 13.7254 12.7058ZM16.2804 17.2643C15.3513 17.6809 13.9096 18.1696 12.1476 18.1055C9.64869 18.0174 7.68641 16.8878 6.33284 15.7662C4.9232 14.5965 4.21838 12.7859 4.45866 10.9754C4.54677 10.3024 4.67491 9.58938 4.85112 8.83631C5.19552 7.38624 5.63603 6.12844 6.08455 5.11099C4.4026 7.50641 2.72065 9.89382 1.03869 12.2892C-0.603211 14.6286 -0.27483 17.8492 1.85564 19.7559C2.83278 20.6291 4.04218 21.4783 5.53992 22.1353C7.20585 22.8643 8.77567 23.1688 10.0732 23.2649C11.6991 23.3931 13.2929 22.7121 14.3261 21.4543C14.5904 21.1339 14.8547 20.7653 15.103 20.3567C15.8158 19.147 16.1282 18.0174 16.2804 17.2643Z" fill="url(#paint0_linear_17713_45971)"/>
<path d="M11.2754 6.80203C14.2148 3.26898 17.8991 3.96598 19.2447 4.46269C19.2927 4.47871 19.3328 4.50274 19.3728 4.51877C19.2607 4.50274 19.1405 4.48672 19.0284 4.4707C17.2183 4.22234 15.4002 4.91934 14.2308 6.32935C13.1095 7.67527 11.9722 9.63807 11.8761 12.1376C11.812 13.9082 12.2846 15.3502 12.7011 16.2796C11.9402 16.1273 10.8189 15.8149 9.61749 15.0858C9.5374 15.0378 9.45731 14.9817 9.37721 14.9336C9.22504 14.1806 8.53624 10.1027 11.2754 6.80203ZM15.0718 9.38171C15.0238 9.46182 14.9677 9.54194 14.9196 9.62205C14.1908 10.8238 13.8704 11.9454 13.7263 12.7065C14.6553 12.2899 16.097 11.8092 17.8671 11.8813C20.366 11.9774 22.3282 13.115 23.6738 14.2366C25.0754 15.4063 25.7802 17.2249 25.532 19.0355C25.5159 19.1476 25.4999 19.2678 25.4839 19.38C25.4999 19.3399 25.524 19.2999 25.54 19.2518C26.0365 17.9059 26.7334 14.2206 23.2013 11.2804C19.8934 8.53249 15.8247 9.22148 15.0718 9.38171ZM20.5902 15.0618C20.5101 15.0137 20.43 14.9577 20.3499 14.9096C19.1486 14.1806 18.0273 13.8601 17.2664 13.7159C17.6829 14.6452 18.1634 16.0873 18.0913 17.8578C17.9952 20.3574 16.8579 22.3202 15.7366 23.6661C14.5672 25.0681 12.7491 25.7891 10.931 25.5408C10.8189 25.5247 10.6987 25.5087 10.5866 25.4927C10.6267 25.5087 10.6667 25.5247 10.7148 25.5408C12.0603 26.0375 15.7526 26.7265 18.684 23.1934C21.4392 19.8927 20.7424 15.8149 20.5902 15.0618ZM14.9357 20.5897C14.9837 20.5096 15.0398 20.4295 15.0878 20.3494C15.8167 19.1476 16.1371 18.026 16.2812 17.265C15.3521 17.6816 13.9105 18.1622 12.1404 18.0901C9.64152 17.994 7.67924 16.8564 6.33368 15.7348C4.93205 14.5651 4.21122 12.7465 4.45951 10.9359C4.47553 10.8238 4.49154 10.7036 4.50756 10.5834C4.49154 10.6235 4.46752 10.6635 4.4515 10.7116C3.95492 12.0575 3.27413 15.7428 6.80623 18.683C10.1061 21.4389 14.1828 20.7499 14.9357 20.5897Z" fill="url(#paint1_radial_17713_45971)"/>
<defs>
<linearGradient id="paint0_linear_17713_45971" x1="-0.00502883" y1="14.9994" x2="29.9996" y2="14.9994" gradientUnits="userSpaceOnUse">
<stop stop-color="#567AEC"/>
<stop offset="0.353" stop-color="#7954D6"/>
<stop offset="1" stop-color="#C3577C"/>
</linearGradient>
<radialGradient id="paint1_radial_17713_45971" cx="0" cy="0" r="1" gradientUnits="userSpaceOnUse" gradientTransform="translate(14.996 14.9996) scale(12.6527 12.6561)">
<stop stop-color="#300E77"/>
<stop offset="1" stop-color="#4E2A91"/>
</radialGradient>
</defs>
</svg>
