<svg width="32" height="32" viewBox="0 0 32 32" fill="none" xmlns="http://www.w3.org/2000/svg">
<path d="M3.47826 0H5.7971V2H3.47826V0Z" fill="url(#paint0_linear_18402_78987)"/>
<path d="M8.11594 0H10.4348V2H8.11594V0Z" fill="url(#paint1_linear_18402_78987)"/>
<path d="M13.913 4V6.66667H11.913V4H13.913Z" fill="url(#paint2_linear_18402_78987)"/>
<path d="M10.4348 10.6667H8.11594V8.66667H10.4348V10.6667Z" fill="url(#paint3_linear_18402_78987)"/>
<path d="M5.7971 10.6667H3.47826V8.66667H5.7971V10.6667Z" fill="url(#paint4_linear_18402_78987)"/>
<path d="M0 6.66667V4H2V6.66667H0Z" fill="url(#paint5_linear_18402_78987)"/>
<path d="M21.5652 21.3333H23.8841V23.3333H21.5652V21.3333Z" fill="url(#paint6_linear_18402_78987)"/>
<path d="M26.2029 21.3333H28.5217V23.3333H26.2029V21.3333Z" fill="url(#paint7_linear_18402_78987)"/>
<path d="M32 25.3333V28H30V25.3333H32Z" fill="url(#paint8_linear_18402_78987)"/>
<path d="M28.5217 32H26.2029V30H28.5217V32Z" fill="url(#paint9_linear_18402_78987)"/>
<path d="M23.8841 32H21.5652V30H23.8841V32Z" fill="url(#paint10_linear_18402_78987)"/>
<path d="M18.087 28V25.3333H20.087V28H18.087Z" fill="url(#paint11_linear_18402_78987)"/>
<path d="M0 8.66667V10.6667H2V8.66667H0Z" fill="url(#paint12_linear_18402_78987)"/>
<path d="M0 2V0H2V2H0Z" fill="url(#paint13_linear_18402_78987)"/>
<path d="M13.913 2V0H11.913V2H13.913Z" fill="url(#paint14_linear_18402_78987)"/>
<path d="M11.913 10.6667H13.913V8.66667L11.913 8.66667V10.6667Z" fill="url(#paint15_linear_18402_78987)"/>
<path d="M30 32H32V30H30V32Z" fill="url(#paint16_linear_18402_78987)"/>
<path d="M32 23.3333V21.3333H30V23.3333H32Z" fill="url(#paint17_linear_18402_78987)"/>
<path d="M18.087 23.3333V21.3333H20.087V23.3333H18.087Z" fill="url(#paint18_linear_18402_78987)"/>
<path d="M18.087 30V32H20.087V30H18.087Z" fill="url(#paint19_linear_18402_78987)"/>
<path fill-rule="evenodd" clip-rule="evenodd" d="M18.087 17.0667H32V0H18.087V17.0667ZM30 2V15.0667H20.087V2H30Z" fill="url(#paint20_linear_18402_78987)"/>
<path fill-rule="evenodd" clip-rule="evenodd" d="M13.913 32V14.9333H0V32H13.913ZM11.913 16.9333V30H2V16.9333H11.913Z" fill="url(#paint21_linear_18402_78987)"/>
<defs>
<linearGradient id="paint0_linear_18402_78987" x1="43.52" y1="-79.2" x2="-13.644" y2="-77.2717" gradientUnits="userSpaceOnUse">
<stop stop-color="#E06656"/>
<stop offset="0.774201" stop-color="#8C7CEB"/>
<stop offset="1" stop-color="#5FCEE7"/>
</linearGradient>
<linearGradient id="paint1_linear_18402_78987" x1="43.52" y1="-79.2" x2="-13.644" y2="-77.2717" gradientUnits="userSpaceOnUse">
<stop stop-color="#E06656"/>
<stop offset="0.774201" stop-color="#8C7CEB"/>
<stop offset="1" stop-color="#5FCEE7"/>
</linearGradient>
<linearGradient id="paint2_linear_18402_78987" x1="43.52" y1="-79.2" x2="-13.644" y2="-77.2717" gradientUnits="userSpaceOnUse">
<stop stop-color="#E06656"/>
<stop offset="0.774201" stop-color="#8C7CEB"/>
<stop offset="1" stop-color="#5FCEE7"/>
</linearGradient>
<linearGradient id="paint3_linear_18402_78987" x1="43.52" y1="-79.2" x2="-13.644" y2="-77.2717" gradientUnits="userSpaceOnUse">
<stop stop-color="#E06656"/>
<stop offset="0.774201" stop-color="#8C7CEB"/>
<stop offset="1" stop-color="#5FCEE7"/>
</linearGradient>
<linearGradient id="paint4_linear_18402_78987" x1="43.52" y1="-79.2" x2="-13.644" y2="-77.2717" gradientUnits="userSpaceOnUse">
<stop stop-color="#E06656"/>
<stop offset="0.774201" stop-color="#8C7CEB"/>
<stop offset="1" stop-color="#5FCEE7"/>
</linearGradient>
<linearGradient id="paint5_linear_18402_78987" x1="43.52" y1="-79.2" x2="-13.644" y2="-77.2717" gradientUnits="userSpaceOnUse">
<stop stop-color="#E06656"/>
<stop offset="0.774201" stop-color="#8C7CEB"/>
<stop offset="1" stop-color="#5FCEE7"/>
</linearGradient>
<linearGradient id="paint6_linear_18402_78987" x1="43.52" y1="-79.2" x2="-13.644" y2="-77.2717" gradientUnits="userSpaceOnUse">
<stop stop-color="#E06656"/>
<stop offset="0.774201" stop-color="#8C7CEB"/>
<stop offset="1" stop-color="#5FCEE7"/>
</linearGradient>
<linearGradient id="paint7_linear_18402_78987" x1="43.52" y1="-79.2" x2="-13.644" y2="-77.2717" gradientUnits="userSpaceOnUse">
<stop stop-color="#E06656"/>
<stop offset="0.774201" stop-color="#8C7CEB"/>
<stop offset="1" stop-color="#5FCEE7"/>
</linearGradient>
<linearGradient id="paint8_linear_18402_78987" x1="43.52" y1="-79.2" x2="-13.644" y2="-77.2717" gradientUnits="userSpaceOnUse">
<stop stop-color="#E06656"/>
<stop offset="0.774201" stop-color="#8C7CEB"/>
<stop offset="1" stop-color="#5FCEE7"/>
</linearGradient>
<linearGradient id="paint9_linear_18402_78987" x1="43.52" y1="-79.2" x2="-13.644" y2="-77.2717" gradientUnits="userSpaceOnUse">
<stop stop-color="#E06656"/>
<stop offset="0.774201" stop-color="#8C7CEB"/>
<stop offset="1" stop-color="#5FCEE7"/>
</linearGradient>
<linearGradient id="paint10_linear_18402_78987" x1="43.52" y1="-79.2" x2="-13.644" y2="-77.2717" gradientUnits="userSpaceOnUse">
<stop stop-color="#E06656"/>
<stop offset="0.774201" stop-color="#8C7CEB"/>
<stop offset="1" stop-color="#5FCEE7"/>
</linearGradient>
<linearGradient id="paint11_linear_18402_78987" x1="43.52" y1="-79.2" x2="-13.644" y2="-77.2717" gradientUnits="userSpaceOnUse">
<stop stop-color="#E06656"/>
<stop offset="0.774201" stop-color="#8C7CEB"/>
<stop offset="1" stop-color="#5FCEE7"/>
</linearGradient>
<linearGradient id="paint12_linear_18402_78987" x1="43.52" y1="-79.2" x2="-13.644" y2="-77.2717" gradientUnits="userSpaceOnUse">
<stop stop-color="#E06656"/>
<stop offset="0.774201" stop-color="#8C7CEB"/>
<stop offset="1" stop-color="#5FCEE7"/>
</linearGradient>
<linearGradient id="paint13_linear_18402_78987" x1="43.52" y1="-79.2" x2="-13.644" y2="-77.2717" gradientUnits="userSpaceOnUse">
<stop stop-color="#E06656"/>
<stop offset="0.774201" stop-color="#8C7CEB"/>
<stop offset="1" stop-color="#5FCEE7"/>
</linearGradient>
<linearGradient id="paint14_linear_18402_78987" x1="43.52" y1="-79.2" x2="-13.644" y2="-77.2717" gradientUnits="userSpaceOnUse">
<stop stop-color="#E06656"/>
<stop offset="0.774201" stop-color="#8C7CEB"/>
<stop offset="1" stop-color="#5FCEE7"/>
</linearGradient>
<linearGradient id="paint15_linear_18402_78987" x1="43.52" y1="-79.2" x2="-13.644" y2="-77.2717" gradientUnits="userSpaceOnUse">
<stop stop-color="#E06656"/>
<stop offset="0.774201" stop-color="#8C7CEB"/>
<stop offset="1" stop-color="#5FCEE7"/>
</linearGradient>
<linearGradient id="paint16_linear_18402_78987" x1="43.52" y1="-79.2" x2="-13.644" y2="-77.2717" gradientUnits="userSpaceOnUse">
<stop stop-color="#E06656"/>
<stop offset="0.774201" stop-color="#8C7CEB"/>
<stop offset="1" stop-color="#5FCEE7"/>
</linearGradient>
<linearGradient id="paint17_linear_18402_78987" x1="43.52" y1="-79.2" x2="-13.644" y2="-77.2717" gradientUnits="userSpaceOnUse">
<stop stop-color="#E06656"/>
<stop offset="0.774201" stop-color="#8C7CEB"/>
<stop offset="1" stop-color="#5FCEE7"/>
</linearGradient>
<linearGradient id="paint18_linear_18402_78987" x1="43.52" y1="-79.2" x2="-13.644" y2="-77.2717" gradientUnits="userSpaceOnUse">
<stop stop-color="#E06656"/>
<stop offset="0.774201" stop-color="#8C7CEB"/>
<stop offset="1" stop-color="#5FCEE7"/>
</linearGradient>
<linearGradient id="paint19_linear_18402_78987" x1="43.52" y1="-79.2" x2="-13.644" y2="-77.2717" gradientUnits="userSpaceOnUse">
<stop stop-color="#E06656"/>
<stop offset="0.774201" stop-color="#8C7CEB"/>
<stop offset="1" stop-color="#5FCEE7"/>
</linearGradient>
<linearGradient id="paint20_linear_18402_78987" x1="43.52" y1="-79.2" x2="-13.644" y2="-77.2717" gradientUnits="userSpaceOnUse">
<stop stop-color="#E06656"/>
<stop offset="0.774201" stop-color="#8C7CEB"/>
<stop offset="1" stop-color="#5FCEE7"/>
</linearGradient>
<linearGradient id="paint21_linear_18402_78987" x1="43.52" y1="-79.2" x2="-13.644" y2="-77.2717" gradientUnits="userSpaceOnUse">
<stop stop-color="#E06656"/>
<stop offset="0.774201" stop-color="#8C7CEB"/>
<stop offset="1" stop-color="#5FCEE7"/>
</linearGradient>
</defs>
</svg>
