<svg width="180" height="41" viewBox="0 0 180 41" fill="none" xmlns="http://www.w3.org/2000/svg">
<path d="M60.4431 15.2647H54.6467V11.849H70.4317V15.2647H64.6352V29.9629H60.4431V15.2647Z" fill="#40B3E0"/>
<path d="M84.6246 23.0537C84.6246 23.1055 84.5988 23.4678 84.547 24.1406H74.015C74.2048 25.0031 74.6534 25.6846 75.3607 26.1849C76.068 26.6851 76.9478 26.9353 78.0001 26.9353C78.7247 26.9353 79.363 26.8318 79.915 26.6248C80.4843 26.4005 81.0105 26.0555 81.4935 25.5897L83.6413 27.9186C82.3302 29.4195 80.4153 30.1699 77.8966 30.1699C76.3267 30.1699 74.938 29.868 73.7304 29.2642C72.5228 28.6432 71.5912 27.7892 70.9357 26.7024C70.2801 25.6156 69.9523 24.3821 69.9523 23.002C69.9523 21.6391 70.2715 20.4143 70.9098 19.3274C71.5654 18.2234 72.4538 17.3694 73.5751 16.7656C74.7137 16.1446 75.9817 15.834 77.3791 15.834C78.7419 15.834 79.9754 16.1273 81.0795 16.7139C82.1836 17.3004 83.0461 18.1457 83.6672 19.2498C84.3055 20.3366 84.6246 21.6046 84.6246 23.0537ZM77.4049 18.8875C76.4906 18.8875 75.7229 19.1463 75.1019 19.6638C74.4808 20.1814 74.1013 20.8887 73.9633 21.7858H80.8207C80.6827 20.9059 80.3032 20.2073 79.6821 19.6897C79.0611 19.1549 78.302 18.8875 77.4049 18.8875Z" fill="#40B3E0"/>
<path d="M87.3122 10.7621H91.349V29.9629H87.3122V10.7621Z" fill="#40B3E0"/>
<path d="M108.733 23.0537C108.733 23.1055 108.707 23.4678 108.655 24.1406H98.1232C98.3129 25.0031 98.7615 25.6846 99.4688 26.1849C100.176 26.6851 101.056 26.9353 102.108 26.9353C102.833 26.9353 103.471 26.8318 104.023 26.6248C104.592 26.4005 105.119 26.0555 105.602 25.5897L107.749 27.9186C106.438 29.4195 104.523 30.1699 102.005 30.1699C100.435 30.1699 99.0461 29.868 97.8385 29.2642C96.6309 28.6432 95.6993 27.7892 95.0438 26.7024C94.3882 25.6156 94.0605 24.3821 94.0605 23.002C94.0605 21.6391 94.3796 20.4143 95.0179 19.3274C95.6735 18.2234 96.5619 17.3694 97.6833 16.7656C98.8218 16.1446 100.09 15.834 101.487 15.834C102.85 15.834 104.084 16.1273 105.188 16.7139C106.292 17.3004 107.154 18.1457 107.775 19.2498C108.414 20.3366 108.733 21.6046 108.733 23.0537ZM101.513 18.8875C100.599 18.8875 99.831 19.1463 99.21 19.6638C98.5889 20.1814 98.2094 20.8887 98.0714 21.7858H104.929C104.791 20.9059 104.411 20.2073 103.79 19.6897C103.169 19.1549 102.41 18.8875 101.513 18.8875Z" fill="#40B3E0"/>
<path d="M125.782 16.041V27.634C125.782 30.1872 125.118 32.0848 123.79 33.3269C122.461 34.569 120.52 35.1901 117.967 35.1901C116.622 35.1901 115.345 35.0262 114.137 34.6984C112.93 34.3706 111.929 33.8962 111.136 33.2752L112.74 30.3769C113.327 30.86 114.068 31.2395 114.965 31.5155C115.863 31.8088 116.76 31.9554 117.657 31.9554C119.054 31.9554 120.081 31.6363 120.736 30.998C121.409 30.3769 121.745 29.4281 121.745 28.1515V27.5563C120.693 28.7122 119.227 29.2901 117.346 29.2901C116.07 29.2901 114.896 29.0141 113.827 28.462C112.775 27.8927 111.938 27.0992 111.317 26.0814C110.696 25.0635 110.385 23.8904 110.385 22.5621C110.385 21.2337 110.696 20.0606 111.317 19.0428C111.938 18.025 112.775 17.24 113.827 16.688C114.896 16.1187 116.07 15.834 117.346 15.834C119.365 15.834 120.9 16.4982 121.952 17.8266V16.041H125.782ZM118.148 25.9778C119.218 25.9778 120.089 25.6673 120.762 25.0463C121.452 24.408 121.797 23.5799 121.797 22.5621C121.797 21.5442 121.452 20.7248 120.762 20.1038C120.089 19.4655 119.218 19.1463 118.148 19.1463C117.079 19.1463 116.199 19.4655 115.509 20.1038C114.819 20.7248 114.474 21.5442 114.474 22.5621C114.474 23.5799 114.819 24.408 115.509 25.0463C116.199 25.6673 117.079 25.9778 118.148 25.9778Z" fill="#40B3E0"/>
<path d="M133.395 17.8783C133.878 17.2055 134.525 16.6966 135.336 16.3516C136.164 16.0065 137.113 15.834 138.182 15.834V19.5603C137.734 19.5258 137.432 19.5086 137.277 19.5086C136.121 19.5086 135.215 19.8364 134.559 20.4919C133.904 21.1302 133.576 22.0963 133.576 23.3901V29.9629H129.539V16.041H133.395V17.8783Z" fill="#40B3E0"/>
<path d="M146.122 15.834C148.278 15.834 149.935 16.3516 151.09 17.3867C152.246 18.4045 152.824 19.9485 152.824 22.0187V29.9629H149.046V28.2291C148.287 29.523 146.872 30.1699 144.802 30.1699C143.733 30.1699 142.801 29.9888 142.008 29.6265C141.231 29.2642 140.636 28.7639 140.222 28.1256C139.808 27.4873 139.601 26.7628 139.601 25.952C139.601 24.6581 140.084 23.6403 141.05 22.8985C142.033 22.1567 143.543 21.7858 145.579 21.7858H148.787C148.787 20.9059 148.52 20.2331 147.985 19.7673C147.45 19.2843 146.648 19.0428 145.579 19.0428C144.837 19.0428 144.104 19.1635 143.379 19.4051C142.672 19.6293 142.068 19.9399 141.568 20.3366L140.119 17.516C140.878 16.9813 141.783 16.5672 142.836 16.2739C143.905 15.9807 145.001 15.834 146.122 15.834ZM145.812 27.4528C146.502 27.4528 147.114 27.2976 147.649 26.987C148.184 26.6593 148.563 26.1849 148.787 25.5638V24.1406H146.019C144.362 24.1406 143.534 24.684 143.534 25.7708C143.534 26.2884 143.733 26.7024 144.13 27.0129C144.544 27.3062 145.104 27.4528 145.812 27.4528Z" fill="#40B3E0"/>
<path d="M174.307 15.834C176.049 15.834 177.43 16.3516 178.447 17.3867C179.482 18.4045 180 19.9399 180 21.9928V29.9629H175.963V22.6138C175.963 21.5097 175.73 20.6903 175.264 20.1555C174.816 19.6035 174.169 19.3274 173.324 19.3274C172.375 19.3274 171.624 19.638 171.072 20.259C170.52 20.8628 170.244 21.7685 170.244 22.9761V29.9629H166.208V22.6138C166.208 20.4229 165.328 19.3274 163.568 19.3274C162.636 19.3274 161.895 19.638 161.343 20.259C160.791 20.8628 160.515 21.7685 160.515 22.9761V29.9629H156.478V16.041H160.333V17.6454C160.851 17.0589 161.481 16.6103 162.222 16.2998C162.982 15.9893 163.81 15.834 164.707 15.834C165.69 15.834 166.578 16.0324 167.372 16.4292C168.166 16.8087 168.804 17.3694 169.287 18.1112C169.856 17.3867 170.572 16.826 171.435 16.4292C172.314 16.0324 173.272 15.834 174.307 15.834Z" fill="#40B3E0"/>
<path d="M20.4293 0C9.1464 0 0 9.1464 0 20.4293C0 31.7121 9.1464 40.8585 20.4293 40.8585C31.7121 40.8585 40.8585 31.7121 40.8585 20.4293C40.8585 9.1464 31.7121 0 20.4293 0Z" fill="#40B3E0"/>
<path d="M30.3699 11.752L26.7209 30.1493C26.7209 30.1493 26.2106 31.4252 24.8072 30.8128L16.3869 24.3571L13.325 22.8773L8.17078 21.1421C8.17078 21.1421 7.37979 20.8615 7.30318 20.2491C7.22657 19.6367 8.19632 19.305 8.19632 19.305L28.6856 11.2674C28.6856 11.2674 30.3699 10.5272 30.3699 11.752Z" fill="white"/>
<path d="M15.7397 29.9417C15.7397 29.9417 15.4939 29.9187 15.1875 28.9489C14.8815 27.9794 13.3249 22.8762 13.3249 22.8762L25.7002 15.0173C25.7002 15.0173 26.4148 14.5835 26.3892 15.0173C26.3892 15.0173 26.5168 15.0939 26.1339 15.4511C25.7513 15.8085 16.4124 24.2031 16.4124 24.2031" fill="#D2E5F1"/>
<path d="M19.6156 26.831L16.2851 29.8676C16.2851 29.8676 16.0244 30.0655 15.7397 29.9417L16.3777 24.301" fill="#B5CFE4"/>
</svg>
