<svg width="149" height="33" viewBox="0 0 149 33" fill="none" xmlns="http://www.w3.org/2000/svg">
<path d="M40 3.827C38.5281 4.47608 36.9466 4.91475 35.2866 5.1121C36.9811 4.10205 38.2822 2.50259 38.8948 0.596862C37.284 1.54753 35.5216 2.21734 33.6838 2.57734C32.1867 0.991248 30.0541 0 27.6936 0C23.1614 0 19.4869 3.65421 19.4869 8.16121C19.4869 8.80096 19.5595 9.42377 19.6994 10.0213C12.8791 9.68079 6.83219 6.43169 2.78453 1.49394C2.07828 2.69932 1.67359 4.10143 1.67359 5.59692C1.67359 8.42848 3.1225 10.9264 5.32438 12.3901C4.02117 12.3495 2.74664 11.9994 1.60719 11.3691C1.60672 11.4033 1.60672 11.4375 1.60672 11.4718C1.60672 15.4261 4.43547 18.7248 8.18953 19.4746C6.98107 19.8014 5.71348 19.8492 4.48359 19.6144C5.52781 22.8568 8.55859 25.2163 12.1495 25.2823C9.34094 27.4712 5.80234 28.776 1.95766 28.776C1.29516 28.776 0.642031 28.7373 0 28.662C3.63172 30.9776 7.94531 32.3288 12.5797 32.3288C27.6745 32.3288 35.9287 19.8926 35.9287 9.10771C35.9287 8.75372 35.9209 8.40176 35.905 8.05181C37.5116 6.89676 38.8983 5.46611 40 3.827Z" fill="#55ACEE"/>
<path d="M57.9954 25H62.2074V10.232H68.0314V6.8H52.1714V10.232H57.9954V25Z" fill="#55ACEE"/>
<path d="M88.0498 11.012L84.6438 20.476L81.3158 11.012H77.8838L74.4518 20.476L71.1498 11.012H67.3278L72.3718 25H76.2718L79.5218 16.316L82.6678 25H86.5678L91.6378 11.012H88.0498Z" fill="#55ACEE"/>
<path d="M95.5514 9.062C97.0594 9.062 98.0734 8.074 98.0734 6.722C98.0734 5.474 97.0594 4.538 95.5514 4.538C94.0434 4.538 93.0294 5.526 93.0294 6.8C93.0294 8.074 94.0434 9.062 95.5514 9.062ZM93.5234 25H97.5794V11.012H93.5234V25Z" fill="#55ACEE"/>
<path d="M109.274 21.464C108.832 21.802 108.234 21.984 107.636 21.984C106.544 21.984 105.894 21.334 105.894 20.138V14.444H109.378V11.324H105.894V7.918H101.838V11.324H99.6797V14.444H101.838V20.19C101.838 23.518 103.762 25.208 107.064 25.208C108.312 25.208 109.534 24.922 110.366 24.324L109.274 21.464Z" fill="#55ACEE"/>
<path d="M120.268 21.464C119.826 21.802 119.228 21.984 118.63 21.984C117.538 21.984 116.888 21.334 116.888 20.138V14.444H120.372V11.324H116.888V7.918H112.832V11.324H110.674V14.444H112.832V20.19C112.832 23.518 114.756 25.208 118.058 25.208C119.306 25.208 120.528 24.922 121.36 24.324L120.268 21.464Z" fill="#55ACEE"/>
<path d="M136.907 18.058C136.907 13.56 133.735 10.804 129.627 10.804C125.363 10.804 122.165 13.82 122.165 18.006C122.165 22.166 125.311 25.208 130.147 25.208C132.669 25.208 134.619 24.428 135.919 22.946L133.761 20.606C132.799 21.516 131.733 21.958 130.251 21.958C128.119 21.958 126.637 20.892 126.247 19.15H136.829C136.855 18.812 136.907 18.37 136.907 18.058ZM129.653 13.872C131.473 13.872 132.799 15.016 133.085 16.784H126.195C126.481 14.99 127.807 13.872 129.653 13.872Z" fill="#55ACEE"/>
<path d="M143.481 12.858V11.012H139.607V25H143.663V18.396C143.663 15.718 145.145 14.496 147.381 14.496C147.693 14.496 147.953 14.522 148.291 14.548V10.804C146.133 10.804 144.469 11.506 143.481 12.858Z" fill="#55ACEE"/>
</svg>
