<svg width="40" height="40" viewBox="0 0 40 40" fill="none" xmlns="http://www.w3.org/2000/svg">
<path d="M18.21 19.6534C17.2379 18.8493 15.3097 17.3931 14.3616 15.3584C13.7816 14.1073 13.5015 12.7946 13.6736 10.1487C13.6896 9.90668 13.7136 9.82463 13.7336 9.64004C13.6016 9.82463 13.4655 10.0133 13.3415 10.1774C11.8734 12.1588 11.1773 14.8292 12.0974 17.6433C12.3814 18.5458 12.8055 19.3703 13.2735 20.1333C14.2056 21.6634 15.3017 22.9433 16.2578 24.1575C16.4338 24.3831 17.7419 26.2414 18.1099 27.1234C18.198 27.3326 18.258 27.55 18.314 27.7715C18.55 28.7068 18.518 29.5518 18.282 30.2902C17.7619 32.1362 16.1058 33.453 14.1376 33.4899C13.3055 33.5063 11.7494 33.2561 10.6253 32.7064C6.0289 30.4502 2.99663 24.338 2.99663 18.4268C2.99663 9.93129 8.27709 2.70331 15.6537 0C7.72904 1.7188 -0.295651 10.0585 0.00837546 19.7969C0.0563796 21.3435 0.220394 22.771 0.488417 24.0919C1.72852 30.2574 5.89689 35.221 8.86114 37.0957C11.0973 38.5109 13.1015 39.1057 14.4056 39.2903C18.698 39.8933 22.1503 38.4494 24.1265 34.5236C24.1465 34.4867 24.3465 34.0396 24.3705 33.9781C26.1226 29.6995 24.4145 26.2086 23.3344 24.5718C21.8703 22.3567 19.294 20.5517 18.21 19.6534Z" fill="#57576E"/>
<path d="M17.0939 16.0189C18.346 17.7254 20.9902 19.6739 21.6062 20.1949C23.1184 21.4624 24.5825 22.6233 25.5786 24.5595C26.2707 25.9009 26.3987 27.1931 26.3747 28.8381C26.3627 29.7077 26.2626 30.401 26.2626 30.401C26.5907 29.8759 28.2388 28.1817 28.3108 25.1461C28.3348 24.1124 28.1948 23.2551 27.9028 22.3608C27.6188 21.4583 27.1947 20.6338 26.7267 19.8708C25.7946 18.3407 24.6985 17.0608 23.7424 15.8466C23.5664 15.621 22.2583 13.7627 21.8903 12.8807C21.8023 12.6715 21.7423 12.4541 21.6863 12.2326C21.4502 11.2973 21.4822 10.4523 21.7183 9.71388C22.2383 7.86791 23.8944 6.55112 25.8626 6.5142C26.6947 6.4978 28.2508 6.74803 29.3749 7.29771C33.9673 9.54979 36.9996 15.662 36.9996 21.5732C36.9996 30.0687 31.7191 37.2967 24.3465 40C32.2672 38.2812 40.2919 29.9415 39.9918 20.2031C39.9438 18.6565 39.7798 17.229 39.5118 15.9081C38.2717 9.74259 34.1033 4.779 31.1391 2.90432C28.9029 1.48908 26.8987 0.894267 25.5946 0.709671C21.3022 0.11486 17.8499 1.55471 15.8737 5.48457C15.8537 5.52149 15.6537 5.96862 15.6297 6.03015C13.4295 11.4901 16.7858 15.6005 17.0939 16.0189Z" fill="#57576E"/>
</svg>
