<svg width="172" height="32" viewBox="0 0 172 32" fill="none" xmlns="http://www.w3.org/2000/svg">
<path d="M44.7621 5.00719C44.2352 3.0493 42.6915 1.50599 40.734 0.978773C37.1575 0 22.8514 0 22.8514 0C22.8514 0 8.5457 0 4.96918 0.941464C3.0493 1.46833 1.46799 3.04964 0.941115 5.00719C0 8.58336 0 16 0 16C0 16 0 23.454 0.941115 26.9928C1.46833 28.9504 3.01164 30.494 4.96953 31.0212C8.58336 32 22.8518 32 22.8518 32C22.8518 32 37.1575 32 40.734 31.0585C42.6919 30.5317 44.2352 28.988 44.7624 27.0305C45.7035 23.454 45.7035 16.0377 45.7035 16.0377C45.7035 16.0377 45.7412 8.58336 44.7621 5.00719Z" fill="#FF0000"/>
<path d="M18.293 22.8559L30.1893 16.0041L18.293 9.15234V22.8559Z" fill="white"/>
<path d="M75.9641 6.8H71.83L66.968 14.886L62.106 6.8H57.634L64.68 18.5V25H68.892V18.552L75.9641 6.8Z" fill="#C8C8DB"/>
<path d="M82.5475 25.208C86.9935 25.208 90.2175 22.218 90.2175 18.006C90.2175 13.794 86.9935 10.804 82.5475 10.804C78.1015 10.804 74.8515 13.794 74.8515 18.006C74.8515 22.218 78.1015 25.208 82.5475 25.208ZM82.5475 21.88C80.5195 21.88 78.9595 20.424 78.9595 18.006C78.9595 15.588 80.5195 14.132 82.5475 14.132C84.5755 14.132 86.1095 15.588 86.1095 18.006C86.1095 20.424 84.5755 21.88 82.5475 21.88Z" fill="#C8C8DB"/>
<path d="M102.965 11.012V17.928C102.965 20.502 101.613 21.698 99.7406 21.698C97.9466 21.698 96.9066 20.658 96.9066 18.318V11.012H92.8506V18.916C92.8506 23.232 95.3206 25.208 98.8306 25.208C100.547 25.208 102.107 24.558 103.173 23.336V25H107.021V11.012H102.965Z" fill="#C8C8DB"/>
<path d="M118.708 21.464C118.266 21.802 117.668 21.984 117.07 21.984C115.978 21.984 115.328 21.334 115.328 20.138V14.444H118.812V11.324H115.328V7.918H111.272V11.324H109.114V14.444H111.272V20.19C111.272 23.518 113.196 25.208 116.498 25.208C117.746 25.208 118.968 24.922 119.8 24.324L118.708 21.464Z" fill="#C8C8DB"/>
<path d="M132.113 11.012V17.928C132.113 20.502 130.761 21.698 128.889 21.698C127.095 21.698 126.055 20.658 126.055 18.318V11.012H121.999V18.916C121.999 23.232 124.469 25.208 127.979 25.208C129.695 25.208 131.255 24.558 132.321 23.336V25H136.169V11.012H132.113Z" fill="#C8C8DB"/>
<path d="M148.195 10.804C146.453 10.804 145.023 11.35 143.983 12.494V5.708H139.927V25H143.801V23.388C144.815 24.61 146.323 25.208 148.195 25.208C152.121 25.208 155.163 22.4 155.163 18.006C155.163 13.612 152.121 10.804 148.195 10.804ZM147.493 21.88C145.465 21.88 143.931 20.424 143.931 18.006C143.931 15.588 145.465 14.132 147.493 14.132C149.521 14.132 151.055 15.588 151.055 18.006C151.055 20.424 149.521 21.88 147.493 21.88Z" fill="#C8C8DB"/>
<path d="M171.58 18.058C171.58 13.56 168.408 10.804 164.3 10.804C160.036 10.804 156.838 13.82 156.838 18.006C156.838 22.166 159.984 25.208 164.82 25.208C167.342 25.208 169.292 24.428 170.592 22.946L168.434 20.606C167.472 21.516 166.406 21.958 164.924 21.958C162.792 21.958 161.31 20.892 160.92 19.15H171.502C171.528 18.812 171.58 18.37 171.58 18.058ZM164.326 13.872C166.146 13.872 167.472 15.016 167.758 16.784H160.868C161.154 14.99 162.48 13.872 164.326 13.872Z" fill="#C8C8DB"/>
</svg>
